<svg style="position: absolute; width: 0; height: 0; overflow: hidden;" version="1.1" xmlns="http://www.w3.org/2000/svg" xmlns:xlink="http://www.w3.org/1999/xlink">
<defs>
<symbol id="icon-minus-circle" viewBox="0 0 32 32">
<title>minus-circle</title>
<path class="path1" d="M16 32c-8.837 0-16-7.163-16-16s7.163-16 16-16c8.837 0 16 7.163 16 16s-7.163 16-16 16zM23 18c0.552 0 1-0.448 1-1s-0.448-1-1-1h-14c-0.552 0-1 0.448-1 1s0.448 1 1 1h14z"></path>
</symbol>
<symbol id="icon-person" viewBox="0 0 32 32">
<title>person</title>
<path class="path1" d="M31.414 27.671l-0-0c-0.017-0.246-0.017-0.246-0.033-0.492-0.186-2.731-0.306-3.887-0.538-4.489-0.434-1.079-0.947-1.679-1.777-2.224-0.304-0.2-0.522-0.28-3.552-1.342l-0.005-0.002c-0.098-0.035-0.098-0.035-0.201-0.071-2.984-1.054-3.542-1.258-4.060-1.512-0.419-0.22-0.957-1.522-0.912-2.025 0.001 0.047 0.158-0.153 0.35-0.33 0.878-0.858 1.808-2.364 2.2-3.689 0.828-2.793 0.682-6.224-0.975-8.305-1.118-1.386-2.901-2.144-5.194-2.232l-0.241-0c-2.348 0.090-4.109 0.827-5.209 2.235-1.655 2.042-1.8 5.449-0.974 8.301 0.349 1.244 1.226 2.693 2.095 3.593l0.060 0.056c0.016 0.025 0.047 0.059 0.175 0.196 0.007 0.008 0.007 0.008 0.014 0.015 0.113 0.121 0.179 0.202 0.179 0.202 0.129 0.386-0.494 1.688-0.984 1.946-0.588 0.324-2.112 0.875-4.295 1.577-1.809 0.609-3.124 1.095-3.486 1.286-0.892 0.546-1.412 1.154-1.808 2.246-0.224 0.585-0.346 1.748-0.526 4.394-0.021 0.313-0.021 0.313-0.042 0.624-0.001 0.223-0.006 0.283-0.005 0.282l-0.041 0.372 0.109 0.248 0.137 0.126c1.33 1.113 5.617 1.942 14.691 1.942 9.028 0 13.423-0.859 14.646-1.984l0.146-0.097 0.146-0.277v-0.549l-0.338 0.002c0.149-0.001 0.237 0.103 0.253 0.183-0.004-0.018-0.005-0.063-0.005-0.182l-0.001-0.023zM30.741 27.694c0 0.175 0.002 0.232 0.018 0.312 0.040 0.202 0.176 0.362 0.412 0.361l-0.002-0.337h-0.337v0.211h0.337l-0.191-0.277-0.183 0.126c-0.388 0.353-1.337 0.737-3.032 1.068-2.487 0.486-6.154 0.767-11.195 0.767-5.091 0-8.776-0.28-11.27-0.762-1.675-0.324-2.591-0.689-2.977-1.012l-0.125-0.116-0.228 0.248h0.337v-0.211c0.038 0.016 0.046-0.073 0.046-0.421 0.020-0.288 0.020-0.288 0.042-0.601 0.172-2.528 0.296-3.71 0.485-4.204 0.344-0.949 0.763-1.439 1.509-1.896 0.298-0.156 1.601-0.638 3.364-1.231 2.23-0.718 3.767-1.273 4.404-1.624 0.762-0.4 1.543-2.035 1.301-2.76-0.049-0.136-0.124-0.228-0.323-0.441-0.007-0.008-0.007-0.008-0.015-0.016-0.114-0.122-0.143-0.154-0.178-0.197l-0.079-0.077c-0.781-0.809-1.6-2.162-1.918-3.296-0.773-2.665-0.636-5.859 0.853-7.697 0.968-1.239 2.542-1.898 4.694-1.981l0.033 0h0.183c2.098 0.080 3.697 0.76 4.681 1.98 1.489 1.871 1.627 5.089 0.855 7.693-0.359 1.212-1.228 2.619-2.018 3.392-0.341 0.314-0.559 0.591-0.559 0.788-0.067 0.721 0.582 2.29 1.279 2.656 0.563 0.277 1.096 0.471 4.14 1.546 0.103 0.036 0.103 0.036 0.206 0.073l0.006 0.002c2.819 0.988 3.172 1.117 3.4 1.267 0.719 0.472 1.142 0.966 1.52 1.907 0.192 0.5 0.315 1.679 0.492 4.288 0.017 0.247 0.017 0.247 0.033 0.493l0 0-0.001-0.023zM16.523 29.168c-4.552 0-7.958-0.232-10.369-0.632-1.655-0.275-2.657-0.597-3.090-0.873l-0.181 0.284h0.337v-0.211c0.086-1.89 0.281-4.061 0.478-4.547 0.318-0.805 0.609-1.152 1.181-1.476 0.212-0.13 1.645-0.652 3.238-1.196 0.106-0.037 0.106-0.037 0.211-0.073 2.933-1.010 3.675-1.278 4.275-1.589 1.138-0.628 2.124-2.674 1.668-3.795-0.093-0.258-0.257-0.463-0.698-0.936-0.003-0.003-0.003-0.003-0.006-0.007-0.001-0.001-0.001-0.001-0.002-0.002-0.732-0.77-1.491-1.991-1.801-3.025-0.713-2.441-0.615-5.32 0.718-6.976 0.795-1 2.157-1.562 4.009-1.643l0.031 0h0.137c1.826 0.040 3.145 0.592 3.944 1.636 1.337 1.628 1.436 4.54 0.722 6.985-0.317 1.058-1.104 2.337-1.79 3.012-0.615 0.623-0.787 0.875-0.787 1.335 0 1.091 0.741 2.856 1.78 3.413 0.714 0.348 2.266 0.923 4.535 1.706 0.275 0.097 0.478 0.168 1.104 0.384 0.007 0.002 0.007 0.002 0.014 0.005 1.346 0.465 1.935 0.679 2.066 0.759 0.579 0.355 0.888 0.714 1.19 1.479 0.11 0.271 0.215 1.077 0.314 2.303 0.033 0.403 0.144 1.989 0.167 2.236l-0.002 0.179h0.337l-0.18-0.285c-1.38 0.872-5.473 1.548-13.552 1.548v0 0zM16.523 29.842c8.198 0 12.394-0.693 13.911-1.652l0.157-0.285v-0.211c-0.024-0.269-0.135-1.849-0.168-2.259-0.107-1.321-0.213-2.137-0.36-2.5-0.356-0.9-0.762-1.372-1.463-1.802-0.198-0.122-0.71-0.308-2.198-0.821-0.007-0.002-0.007-0.002-0.014-0.005-0.624-0.216-0.827-0.286-1.102-0.383-2.24-0.773-3.783-1.345-4.45-1.67-0.769-0.413-1.413-1.945-1.413-2.813 0-0.214 0.103-0.366 0.589-0.858 0.762-0.75 1.609-2.127 1.96-3.298 0.77-2.64 0.664-5.763-0.841-7.595-0.929-1.214-2.441-1.847-4.464-1.891l-0.191-0c-2.046 0.089-3.591 0.726-4.52 1.896-1.501 1.866-1.606 4.955-0.837 7.587 0.343 1.145 1.158 2.456 1.956 3.296-0.001-0.001-0.001-0.001-0-0 0.003 0.003 0.003 0.003 0.006 0.007 0.365 0.392 0.509 0.571 0.562 0.718 0.319 0.785-0.502 2.487-1.357 2.959-0.547 0.283-1.308 0.558-4.177 1.546-0.105 0.036-0.105 0.036-0.21 0.072-1.701 0.58-3.093 1.087-3.362 1.253-0.7 0.396-1.093 0.864-1.465 1.805-0.241 0.592-0.434 2.748-0.527 4.782l-0 0.226 0.156 0.284c1.416 0.902 5.684 1.611 13.821 1.611v0 0z"></path>
</symbol>
<symbol id="icon-user-management" viewBox="0 0 32 32">
<title>user-management</title>
<path class="path1" d="M12.975 25.136c-8.585 0-11.039-1.056-11.613-1.403 0.080-1.076 0.228-2.336 0.425-2.889 0.303-0.849 0.633-1.196 1.1-1.508 0.224-0.149 1.753-0.721 2.785-1.107 1.56-0.583 3.173-1.185 3.825-1.556 0.807-0.459 1.66-2.24 1.329-3.172-0.088-0.248-0.269-0.477-0.533-0.767-0.571-0.623-1.309-1.796-1.613-2.933-0.427-1.592-0.769-4.799 0.648-6.708 0.752-1.013 1.957-1.553 3.591-1.605l0.125 0.001c1.623 0.052 2.827 0.592 3.579 1.604 1.417 1.909 1.075 5.116 0.649 6.709-0.304 1.137-1.045 2.312-1.605 2.924-0.4 0.437-0.58 0.689-0.589 1.027-0.017 0.612 0.444 2.392 1.376 2.923 0.367 0.209 1.043 0.492 1.837 0.803 0.212-0.239 0.439-0.464 0.68-0.672-0.908-0.349-1.711-0.676-2.087-0.889-0.535-0.304-0.947-1.705-0.935-2.143 0.005-0.021 0.049-0.117 0.361-0.459 0.629-0.687 1.461-2.008 1.804-3.288 0.467-1.745 0.824-5.279-0.792-7.456-0.919-1.237-2.349-1.896-4.252-1.956l-0.141-0.004c-1.953 0.064-3.384 0.723-4.303 1.961-1.616 2.177-1.257 5.711-0.791 7.455 0.341 1.279 1.172 2.597 1.799 3.283 0.107 0.117 0.323 0.353 0.369 0.484 0.167 0.469-0.439 1.837-0.937 2.121-0.591 0.336-2.241 0.952-3.719 1.504-1.592 0.595-2.657 0.999-2.944 1.189-0.587 0.392-1.056 0.871-1.437 1.94-0.297 0.832-0.443 2.628-0.492 3.363l-0.013 0.204 0.148 0.141c0.432 0.411 2.601 1.751 12.367 1.751 1.672 0 3.108-0.043 4.365-0.112-0.152-0.272-0.283-0.557-0.399-0.849-1.152 0.056-2.46 0.089-3.968 0.089z"></path>
<path class="path2" d="M24.205 30.286c4.366 0 7.905-3.539 7.905-7.905s-3.539-7.905-7.905-7.905c-4.366 0-7.905 3.539-7.905 7.905s3.539 7.905 7.905 7.905v0zM24.205 29.143c-3.735 0-6.762-3.027-6.762-6.762s3.027-6.762 6.762-6.762c3.735 0 6.762 3.027 6.762 6.762s-3.027 6.762-6.762 6.762v0z"></path>
<path class="path3" d="M20.205 22.564h8v-1.143h-8v1.143z"></path>
<path class="path4" d="M23.702 18.381v8h1.143v-8h-1.143z"></path>
</symbol>
<symbol id="icon-menuverification" viewBox="0 0 35 32">
<title>menuverification</title>
<path class="path1" d="M23.019 20.248l5.97-7.249c0.616-0.747 1.469-1.197 2.404-1.271 0.922-0.075 1.844 0.232 2.552 0.85 0.717 0.624 1.158 1.506 1.241 2.482l0.003 0.028c0.070 0.979-0.228 1.925-0.842 2.665l-9.84 11.95c-0.098 0.121-0.205 0.237-0.321 0.346-0.638 0.739-1.534 1.175-2.489 1.213-0 0.001-0.001 0.002-0.001 0.003h-19.093c-1.527 0-2.693-1.238-2.599-2.752 0 0 0.134-2.082 0.666-3.915 0.686-2.33 1.767-4.073 3.1-5.338 1.019-0.969 2.19-1.666 3.464-2.143 1.502 1.257 3.443 2.023 5.558 2.023 2.118 0 4.058-0.766 5.565-2.023 1.552 0.59 0.842-1.117 3.802 2.143 0.332 0.365 0.616 0.692 0.86 0.987zM12.666 16.774c4.65 0 8.422-3.752 8.422-8.389 0-4.628-3.771-8.385-8.422-8.385-4.659 0-8.43 3.758-8.43 8.385 0 4.636 3.771 8.389 8.43 8.389zM31.307 14.052c-0.413 0.031-0.787 0.233-1.054 0.558l-4.365 5.301c-1.473 1.788-4.418 5.364-4.418 5.364l-4.169-3.73c-0.651-0.572-1.629-0.489-2.184 0.184-0.273 0.327-0.397 0.741-0.366 1.167 0.034 0.425 0.229 0.811 0.542 1.086l5.334 4.75c0.287 0.257 0.643 0.382 0.998 0.382 0.439 0 0.876-0.193 1.18-0.563 0.012-0.013 0.017-0.027 0.030-0.040 0.080-0.066 0.154-0.139 0.22-0.222l9.558-11.607c0.269-0.325 0.397-0.738 0.366-1.165-0.036-0.425-0.226-0.813-0.543-1.088-0.317-0.277-0.718-0.409-1.129-0.374z"></path>
</symbol>
<symbol id="icon-administrator" viewBox="0 0 32 32">
<title>administrator</title>
<path class="path1" d="M16.001 5.044c-3.927 0-7.109 3.121-7.109 6.972s3.182 6.972 7.109 6.972c3.924 0 7.107-3.121 7.107-6.972s-3.181-6.972-7.107-6.972zM16.001 16.996c-2.806 0-5.078-2.228-5.078-4.98 0-2.751 2.273-4.981 5.078-4.981 2.803 0 5.076 2.23 5.076 4.981s-2.273 4.98-5.076 4.98zM25.076 19.967c1.929-2.113 3.11-4.892 3.11-7.951 0-6.6-5.455-11.953-12.186-11.953s-12.187 5.352-12.187 11.953c0 3.059 1.181 5.84 3.11 7.951-1.933 3.297-4.111 7.024-4.111 7.024l5.346 0.764 3.334 4.181c0 0 2.493-4.263 4.508-7.704 2.013 3.441 4.509 7.704 4.509 7.704l3.329-4.181 5.347-0.764c0.001 0-2.18-3.725-4.109-7.024zM10.996 28.938l-1.61-3.336-3.642 0.235c0 0 1.254-2.221 2.57-4.551 1.583 1.266 3.498 2.138 5.594 2.493-1.432 2.538-2.913 5.159-2.913 5.159zM16.001 21.975c-5.608 0-10.156-4.46-10.156-9.959 0-5.501 4.547-9.96 10.156-9.96 5.607 0 10.154 4.46 10.154 9.96s-4.547 9.959-10.154 9.959zM22.613 25.602l-1.61 3.336c0 0-1.48-2.621-2.913-5.16 2.093-0.355 4.011-1.229 5.593-2.493 1.317 2.332 2.571 4.551 2.571 4.551l-3.642-0.234z"></path>
</symbol>
<symbol id="icon-android" viewBox="0 0 32 32">
<title>android</title>
<path class="path1" d="M8.3 10.646v12.267c0 0.732 0.591 1.319 1.32 1.319h1.507v3.736c0 0.949 0.758 1.72 1.692 1.72s1.692-0.771 1.692-1.72v-3.736h2.632v3.736c0 0.949 0.76 1.72 1.693 1.72s1.691-0.771 1.691-1.72v-3.736h1.507c0.729 0 1.319-0.59 1.319-1.319v-12.267h-15.052zM19.361 4.29l1.39-2.019c0.083-0.12 0.064-0.278-0.045-0.352-0.108-0.074-0.264-0.038-0.345 0.083l-1.445 2.096c-0.952-0.375-2.009-0.584-3.123-0.584s-2.172 0.209-3.124 0.584l-1.444-2.096c-0.081-0.121-0.236-0.158-0.345-0.083-0.107 0.074-0.127 0.232-0.046 0.352l1.391 2.019c-2.21 1.028-3.761 2.982-3.958 5.263h15.053c-0.197-2.28-1.748-4.234-3.958-5.263zM12.618 7.471c-0.46 0-0.834-0.374-0.834-0.833s0.374-0.833 0.834-0.833 0.833 0.372 0.833 0.833c0 0.46-0.372 0.833-0.833 0.833zM19.071 7.471c-0.458 0-0.831-0.374-0.831-0.833s0.373-0.833 0.831-0.833c0.461 0 0.835 0.372 0.835 0.833 0 0.46-0.374 0.833-0.835 0.833zM5.59 10.593c-0.935 0-1.692 0.77-1.692 1.719v6.714c0 0.948 0.757 1.718 1.692 1.718 0.934 0 1.692-0.769 1.692-1.718v-6.714c0-0.949-0.758-1.719-1.692-1.719zM25.996 10.593c-0.936 0-1.693 0.77-1.693 1.719v6.714c0 0.948 0.757 1.718 1.693 1.718 0.934 0 1.692-0.769 1.692-1.718v-6.714c0-0.949-0.757-1.719-1.692-1.719z"></path>
</symbol>
<symbol id="icon-animation" viewBox="0 0 32 32">
<title>animation</title>
<path class="path1" d="M13.614 15.724c0.476 0.055 0.568-0.653 0.093-0.71-0.477-0.056-0.568 0.652-0.093 0.71zM18.238 15.882c0.474 0.056 0.565-0.652 0.090-0.708-0.473-0.058-0.568 0.652-0.090 0.708zM26.66 14.304c0.255-2.378-1.579-1.199-2.509 0.413 0 0-0.822 1.36-1.667 2.357-0.186-0.456-0.385-0.884-0.589-1.264-0.108-0.201-0.222-0.395-0.336-0.581-0.204-0.334-0.417-1.372-0.638-1.66-0.026-0.035-0.053-0.074-0.079-0.109-0.069-0.089-0.143-0.173-0.212-0.259-0.054-0.067-0.108-0.135-0.166-0.2-0.065-0.074-0.129-0.143-0.197-0.212-0.062-0.067-0.126-0.141-0.188-0.206-0.074-0.074-0.148-0.143-0.221-0.212-0.058-0.054-0.115-0.115-0.171-0.166-0.072-0.068-0.147-0.125-0.218-0.188-0.027-0.022-0.052-0.046-0.078-0.071 0.697-2.331 2.061-4.74 2.061-4.74 0.389 0.746 2.757 3.384 5.067 1.716 2.311-1.67 0.152-5.421-3.514-6.177-3.666-0.753-4.632 2.054-4.632 2.054l-1.799 5.719c-0.044-0.008-0.088-0.013-0.128-0.019-0.063-0.012-0.125-0.020-0.186-0.027-0.053-0.007-0.104-0.007-0.156-0.008-0.058-0.003-0.117-0.008-0.174-0.008-0.31 0-0.651 0.049-1.008 0.149l-2.168-6.442c0 0-1.156-2.739-3.926-2.666-2.769 0.074-8.233 3.473-5.461 6.502 2.774 3.031 5.851-1.492 5.851-1.492s1.91 3.047 2.595 6.063c-0.655 0.67-1.285 2.237-1.834 3.254-0.043 0.079-0.083 0.166-0.125 0.25-0.771-0.961-1.467-2.112-1.467-2.112-0.932-1.613-2.765-2.792-2.508-0.413 0.185 1.716 2.139 3.364 3.278 4.147-1.050 2.927-1.569 9.856-0.532 13.023h14.641c0.925-2.826 0.604-9.241-0.224-12.041 1.034-0.648 3.412-2.468 3.617-4.375zM17.287 15.672c0.147-0.612 0.708-1.010 1.259-0.892 0.55 0.121 0.879 0.708 0.733 1.32-0.145 0.607-0.709 1.007-1.261 0.889-0.55-0.118-0.879-0.71-0.732-1.316zM13.572 14.755c0.563 0.015 1.005 0.533 0.989 1.161-0.015 0.625-0.484 1.116-1.050 1.102-0.564-0.016-1.007-0.536-0.99-1.162 0.015-0.623 0.484-1.119 1.052-1.101zM20.575 19.32c-0.127 0.384-0.847 2.868-1.178 3.688-0.333 0.812-1.576 4.127-3.139 4.127s-3.082-2.652-3.469-3.536c-0.39-0.89-1.486-3.647-1.486-3.647s-0.182-0.47 0.346-0.686c0.53-0.218 3.446-1.619 8.586-0.579-0.001-0.001 0.55 0.015 0.342 0.633zM5.432 17.125c-1.212-0.826-1.403-3.7-1.376-4.735 0.008-0.342-0.273-0.624-0.627-0.634-0.356-0.010-0.652 0.261-0.66 0.6-0.011 0.449-0.065 4.424 1.917 5.779 0.115 0.077 0.246 0.113 0.374 0.113 0.202 0 0.402-0.089 0.527-0.26 0.203-0.276 0.136-0.666-0.154-0.863zM2.977 17.86c-2.157-1.465-1.624-4.652-1.618-4.684 0.061-0.34-0.175-0.657-0.526-0.716-0.352-0.059-0.685 0.168-0.746 0.505-0.026 0.162-0.679 3.988 2.148 5.905 0.113 0.077 0.241 0.115 0.37 0.115 0.202 0 0.402-0.093 0.529-0.264 0.204-0.276 0.134-0.666-0.156-0.861zM29.152 12.614c-0.14-0.312-0.519-0.46-0.845-0.326-0.328 0.133-0.481 0.497-0.341 0.813 0.012 0.027 1.16 2.724-1.453 5.798-0.226 0.265-0.184 0.656 0.090 0.872 0.12 0.096 0.266 0.14 0.409 0.14 0.187 0 0.372-0.076 0.499-0.227 3.102-3.649 1.701-6.93 1.642-7.070zM31.923 13.357c-0.041-0.168-0.122-0.409-0.368-0.551-0.303-0.177-0.7-0.088-0.886 0.204-0.133 0.208-0.12 0.461 0.003 0.652 0.11 0.507 0.068 3.117-1.453 5.393-0.193 0.287-0.106 0.67 0.193 0.855 0.111 0.065 0.23 0.096 0.349 0.096 0.212 0 0.419-0.099 0.544-0.284 1.764-2.639 1.802-5.588 1.618-6.365z"></path>
</symbol>
<symbol id="icon-apple" viewBox="0 0 32 32">
<title>apple</title>
<path class="path1" d="M27.747 22.284c-0.653 1.446-0.965 2.093-1.807 3.372-1.172 1.788-2.829 4.013-4.878 4.031-1.822 0.016-2.288-1.187-4.76-1.171-2.472 0.013-2.989 1.192-4.811 1.175-2.049-0.017-3.618-2.029-4.792-3.814-3.283-4.995-3.626-10.858-1.601-13.976 1.438-2.214 3.708-3.51 5.842-3.51 2.173 0 3.539 1.192 5.335 1.192 1.743 0 2.804-1.194 5.317-1.194 1.9 0 3.91 1.034 5.344 2.82-4.697 2.575-3.934 9.281 0.812 11.075v0zM19.684 6.394c0.913-1.172 1.606-2.825 1.354-4.516-1.491 0.103-3.235 1.052-4.253 2.287-0.925 1.123-1.688 2.787-1.391 4.405 1.629 0.050 3.312-0.922 4.289-2.176v0z"></path>
</symbol>
<symbol id="icon-arrow" viewBox="0 0 32 32">
<title>arrow</title>
<path class="path1" d="M28.123 15.887l0.128 0.115-11.409 10.064c-0.627 0.552-0.627 1.448 0 2.001 0.623 0.547 1.638 0.547 2.266 0l12.267-10.824c0.387-0.337 0.505-0.803 0.417-1.242 0.088-0.439-0.029-0.904-0.417-1.244l-12.267-10.825c-0.627-0.55-1.642-0.55-2.266 0-0.627 0.554-0.627 1.45 0 2.002l8.557 7.546h-23.63c-0.982 0-1.769 0.76-1.769 1.696 0 0.94 0.791 1.693 1.769 1.693h24.746c0.718 0 1.327-0.404 1.609-0.984z"></path>
</symbol>
<symbol id="icon-audio" viewBox="0 0 32 32">
<title>audio</title>
<path class="path1" d="M10.783 3.935v18.504c-0.924-0.69-2.14-1.112-3.478-1.112-2.881 0-5.217 1.946-5.217 4.345 0 2.403 2.335 4.348 5.217 4.348 2.524 0 4.628-1.492 5.112-3.478h0.105v-14.8l15.65-1.755v9.843c-0.924-0.69-2.14-1.114-3.478-1.114-2.881 0-5.217 1.946-5.217 4.348s2.335 4.348 5.217 4.348 5.216-1.946 5.216-4.348v-20.867l-19.126 1.739z"></path>
</symbol>
<symbol id="icon-calendar" viewBox="0 0 32 32">
<title>calendar</title>
<path class="path1" d="M26.653 2.556h-21.349c-1.974 0-3.575 1.501-3.575 3.353v1.676h28.5v-1.676c-0.001-1.852-1.602-3.353-3.576-3.353zM1.729 25.606c0 2.084 1.601 3.772 3.575 3.772h21.348c1.975 0 3.576-1.688 3.576-3.772v-16.344h-28.5v16.344zM24.357 12.615c1.38 0 2.5 1.126 2.5 2.514s-1.12 2.513-2.5 2.513-2.5-1.126-2.5-2.513c-0.001-1.388 1.119-2.514 2.5-2.514zM24.357 20.995c1.38 0 2.5 1.128 2.5 2.515s-1.12 2.515-2.5 2.515-2.5-1.127-2.5-2.515c-0.001-1.388 1.119-2.515 2.5-2.515zM15.974 12.615c1.38 0 2.501 1.126 2.501 2.514s-1.12 2.513-2.5 2.513c-1.38 0-2.5-1.126-2.5-2.513s1.12-2.514 2.5-2.514zM15.974 20.995c1.38 0 2.501 1.128 2.501 2.515s-1.12 2.515-2.5 2.515c-1.38 0-2.5-1.127-2.5-2.515s1.12-2.515 2.5-2.515zM7.592 12.615c1.38 0 2.5 1.126 2.5 2.514s-1.12 2.513-2.5 2.513c-1.38 0-2.5-1.126-2.5-2.513s1.12-2.514 2.5-2.514zM7.592 20.995c1.38 0 2.5 1.128 2.5 2.515s-1.12 2.515-2.5 2.515c-1.38 0-2.5-1.127-2.5-2.515s1.12-2.515 2.5-2.515z"></path>
</symbol>
<symbol id="icon-close" viewBox="0 0 32 32">
<title>close</title>
<path class="path1" d="M28.015 20.024h-24.116c-2.153 0-3.9-1.802-3.9-4.024s1.747-4.024 3.9-4.024h24.116c2.153 0 3.901 1.802 3.901 4.024s-1.748 4.024-3.901 4.024z"></path>
</symbol>
<symbol id="icon-companymenu" viewBox="0 0 32 32">
<title>companymenu</title>
<path class="path1" d="M3.885 13.373c-1.484 0-2.687 1.183-2.687 2.642 0 1.462 1.203 2.642 2.687 2.642 1.485 0 2.688-1.181 2.688-2.642 0.001-1.459-1.203-2.642-2.688-2.642zM6.572 3.923c0 1.459-1.203 2.643-2.687 2.643s-2.687-1.183-2.687-2.643c0-1.459 1.203-2.643 2.687-2.643s2.687 1.183 2.687 2.643zM3.885 25.468c-1.484 0-2.687 1.183-2.687 2.644 0 1.457 1.203 2.641 2.687 2.641 1.485 0 2.688-1.184 2.688-2.641 0.001-1.461-1.203-2.644-2.688-2.644zM28.116 6.566c1.485 0 2.686-1.185 2.686-2.643 0-1.461-1.201-2.643-2.686-2.643-1.486 0-2.687 1.183-2.687 2.643-0.002 1.458 1.201 2.643 2.687 2.643zM18.687 3.923c0 1.459-1.203 2.643-2.687 2.643s-2.687-1.183-2.687-2.643c0-1.459 1.203-2.643 2.687-2.643s2.687 1.183 2.687 2.643zM16 25.468c-1.485 0-2.687 1.183-2.687 2.644 0 1.457 1.203 2.641 2.687 2.641 1.485 0 2.687-1.184 2.687-2.641 0-1.461-1.203-2.644-2.687-2.644zM28.116 13.373c-1.486 0-2.687 1.183-2.687 2.642 0 1.462 1.201 2.642 2.687 2.642 1.485 0 2.686-1.181 2.686-2.642 0-1.459-1.201-2.642-2.686-2.642zM28.116 25.468c-1.486 0-2.687 1.183-2.687 2.644 0 1.457 1.201 2.641 2.687 2.641 1.485 0 2.686-1.184 2.686-2.641 0-1.461-1.201-2.644-2.686-2.644zM16 13.373c-1.485 0-2.687 1.183-2.687 2.642 0 1.462 1.203 2.642 2.687 2.642 1.485 0 2.687-1.181 2.687-2.642 0-1.459-1.203-2.642-2.687-2.642z"></path>
</symbol>
<symbol id="icon-country" viewBox="0 0 32 32">
<title>country</title>
<path class="path1" d="M15.979 2.556c-7.407 0-13.412 6.005-13.412 13.411s6.005 13.411 13.412 13.411 13.411-6.005 13.411-13.411c0-7.406-6.005-13.411-13.411-13.411zM15.979 26.025c-5.555 0-10.059-4.502-10.059-10.058 0-5.554 4.504-10.058 10.059-10.058s10.058 4.504 10.058 10.058c0.001 5.556-4.502 10.058-10.058 10.058zM15.979 7.585c-4.63 0-8.383 3.754-8.383 8.381 0 4.63 3.752 8.382 8.383 8.382s8.382-3.752 8.382-8.382c0-4.628-3.752-8.381-8.382-8.381z"></path>
</symbol>
<symbol id="icon-credit" viewBox="0 0 32 32">
<title>credit</title>
<path class="path1" d="M22.245 17.515c4.227 0 7.651-3.428 7.651-7.656 0-4.23-3.425-7.66-7.651-7.66s-7.652 3.428-7.652 7.66c0 4.228 3.426 7.656 7.652 7.656zM18.913 11.015h1.242c0.185 0 0.182 0.159 0.182 0.159 0.049 0.46 0.236 0.802 0.563 1.025 0.361 0.248 0.847 0.371 1.459 0.371 0.195 0 0.395-0.021 0.605-0.061 0.209-0.040 0.399-0.104 0.573-0.188 0.173-0.087 0.319-0.199 0.436-0.339s0.175-0.308 0.175-0.506c0-0.199-0.049-0.363-0.145-0.495-0.096-0.13-0.239-0.24-0.428-0.33s-0.419-0.164-0.687-0.224c-0.271-0.058-0.579-0.119-0.925-0.182-0.449-0.081-0.856-0.171-1.222-0.269-0.367-0.1-0.681-0.226-0.94-0.379-0.261-0.154-0.463-0.342-0.605-0.568-0.143-0.225-0.214-0.504-0.214-0.838 0-0.559 0.248-1.014 0.741-1.364 0.493-0.353 1.040-0.55 1.877-0.595h0.010v-1.018c0-0.118 0.106-0.212 0.237-0.212h1.244c0.13 0 0.236 0.095 0.236 0.212v1.019h0.016c0.376 0.027 0.147 0.087 0.485 0.182 0.335 0.095 0.628 0.229 0.879 0.406 0.249 0.175 0.449 0.392 0.596 0.654 0.123 0.222 0.2 0.48 0.227 0.779 0 0 0.030 0.169-0.2 0.169h-1.16c-0.175 0-0.182-0.168-0.182-0.168-0.038-0.376-0.209-0.659-0.511-0.846-0.348-0.218-0.765-0.326-1.255-0.326-0.325 0-0.596 0.038-0.809 0.109-0.215 0.072-0.384 0.161-0.506 0.264s-0.205 0.215-0.252 0.332c-0.046 0.117-0.069 0.22-0.069 0.311 0 0.243 0.115 0.439 0.344 0.587s0.5 0.266 0.812 0.352c0.31 0.086 0.634 0.155 0.97 0.209s0.611 0.108 0.825 0.163c0.275 0.070 0.545 0.152 0.81 0.241 0.265 0.091 0.502 0.208 0.712 0.354 0.207 0.144 0.376 0.323 0.504 0.541 0.126 0.214 0.191 0.476 0.191 0.783 0 0.379-0.086 0.701-0.261 0.967-0.173 0.265-0.399 0.484-0.679 0.655s-0.599 0.301-0.956 0.391c-0.358 0.091-0.134 0.145-0.5 0.163h-0.031v1.019c0 0.117-0.106 0.211-0.236 0.211h-1.244c-0.131 0-0.237-0.093-0.237-0.211v-1.019h-0.010c-0.429-0.037-0.707-0.112-1.074-0.223-0.366-0.114-0.681-0.271-0.94-0.472-0.26-0.204-0.467-0.454-0.619-0.75-0.133-0.258-0.225-0.55-0.225-0.882 0-0.188 0.172-0.161 0.172-0.161zM27.696 22.209c-1.647-1.325-2.966-1.941-4.152-1.941-1.53 0-2.486-0.426-3.41 0.508l-0.25 0.25c-0.216 0-3.113 0.055-6.678-3.521-3.853-3.845-2.122-5.247-2.145-5.247l0.282-0.281c1.906-1.885 1.721-3.638-1.434-7.556-1.197-1.49-2.407-2.214-3.697-2.214-1.733 0-1.604 1.32-2.618 2.383-0.161 0.171-0.321 0.337-0.478 0.493-2.526 2.521-0.424 10.029 6.73 17.187 5.716 5.722 11.219 7.754 14.193 7.754 1.291 0 2.326-0.353 2.998-1.024 0.155-0.157 0.323-0.316 0.493-0.479 1.095-1.045 2.456-0.952 2.38-2.755-0.054-1.238-0.777-2.402-2.212-3.555z"></path>
</symbol>
<symbol id="icon-deactive" viewBox="0 0 32 32">
<title>deactive</title>
<path class="path1" d="M15.979 31.895c-8.796 0-15.926-7.131-15.926-15.927 0-8.797 7.13-15.928 15.926-15.928 8.795 0 15.926 7.131 15.926 15.928 0.001 8.796-7.131 15.927-15.926 15.927zM15.979 28.218c2.707 0 5.201-0.889 7.231-2.378l-17.104-17.107c-1.488 2.028-2.377 4.524-2.377 7.235-0.001 6.765 5.484 12.25 12.25 12.25zM15.979 3.715c-2.731 0-5.244 0.905-7.28 2.413l17.116 17.119c1.51-2.036 2.414-4.55 2.414-7.279 0-6.768-5.486-12.253-12.25-12.253z"></path>
</symbol>
<symbol id="icon-delete" viewBox="0 0 32 32">
<title>delete</title>
<path class="path1" d="M26.621 9.995h-21.282c-1.069-0.001-1.934-0.892-1.934-1.99v-1.992c0-1.1 0.867-1.99 1.935-1.99h5.802v-1.991c0-1.099 0.867-1.991 1.935-1.991h5.801c1.070 0 1.935 0.892 1.935 1.991v1.991h5.803c1.069 0 1.935 0.891 1.935 1.99v1.991c0.002 1.1-0.862 1.99-1.93 1.991zM18.879 3.027c0-0.549-0.431-0.995-0.964-0.995h-3.871c-0.533 0-0.966 0.446-0.966 0.995v0.996h5.801v-0.996zM26.618 11.986v15.926c0 2.2-1.731 3.981-3.869 3.981h-13.54c-2.136 0-3.868-1.781-3.868-3.981v-15.926h21.277zM19.848 26.916c0 0.55 0.435 0.996 0.967 0.996 0.534 0 0.969-0.445 0.969-0.996v-11.945c0-0.55-0.435-0.995-0.969-0.995-0.532 0-0.967 0.445-0.967 0.995v11.945zM15.011 26.916c0 0.55 0.434 0.996 0.968 0.996s0.968-0.445 0.968-0.996v-11.945c0-0.55-0.435-0.995-0.968-0.995s-0.968 0.445-0.968 0.995v11.945zM10.175 26.916c0 0.55 0.433 0.996 0.967 0.996s0.967-0.445 0.967-0.996v-11.945c0-0.55-0.433-0.995-0.967-0.995s-0.967 0.445-0.967 0.995v11.945z"></path>
</symbol>
<symbol id="icon-download" viewBox="0 0 32 32">
<title>download</title>
<path class="path1" d="M28.493 20.741l-1.032 5.436h-22.965l-1.032-5.436h-2.567v8.641h30.162v-8.641h-2.566zM26.061 10.669h-7.508v-8.116h-5.197v8.116h-7.437l9.996 12.017 10.147-12.017z"></path>
</symbol>
<symbol id="icon-dropdown" viewBox="0 0 32 32">
<title>dropdown</title>
<path class="path1" d="M0.529 10.844c-0.704-0.644-0.704-1.693 0-2.337 0.707-0.647 1.852-0.647 2.559 0l12.873 11.787 12.873-11.787c0.704-0.647 1.85-0.647 2.556 0 0.707 0.644 0.707 1.693 0 2.337l-13.839 12.678c-0.436 0.395-1.028 0.52-1.59 0.429-0.561 0.091-1.156-0.034-1.59-0.429l-13.841-12.678z"></path>
</symbol>
<symbol id="icon-error" viewBox="0 0 32 32">
<title>error</title>
<path class="path1" d="M17.61 16l11.149-11.149c0.444-0.445 0.444-1.165 0-1.61-0.445-0.444-1.163-0.444-1.61 0l-11.15 11.149-11.149-11.15c-0.444-0.444-1.165-0.444-1.61 0s-0.445 1.165 0 1.61l11.151 11.149-11.151 11.149c-0.445 0.445-0.445 1.166 0 1.611 0.444 0.443 1.165 0.443 1.61 0l11.149-11.149 11.15 11.149c0.445 0.443 1.163 0.443 1.61 0 0.444-0.444 0.444-1.165 0-1.611l-11.149-11.149z"></path>
</symbol>
<symbol id="icon-error2" viewBox="0 0 32 32">
<title>error2</title>
<path class="path1" d="M24.444 14.945c-0.874 0-1.582 0.71-1.582 1.584v3.167c0 0 0.186 1.113-1.056 1.583 0-2.040 0-16.888 0-16.888h-0.002c0.001-0.012 0.004-0.023 0.004-0.035 0-0.875-0.709-1.584-1.584-1.584s-1.585 0.709-1.585 1.584c0 0.012 0.003 0.023 0.004 0.035h-0.004v10.554h-1.055v-11.61c0-0.874-0.709-1.583-1.584-1.583s-1.583 0.709-1.583 1.583v11.61h-1.056v-11.61c0-0.874-0.708-1.583-1.583-1.583s-1.583 0.709-1.583 1.583v13.193h-1.056v-8.444c0-0.874-0.708-1.583-1.583-1.583s-1.584 0.708-1.584 1.583v15.306c0 0-0.317 6.86 8.972 6.86s11.082-6.79 11.082-8.444c0-1.652 0-5.277 0-5.277 0.001-0.875-0.708-1.584-1.583-1.584z"></path>
</symbol>
<symbol id="icon-error3" viewBox="0 0 32 32">
<title>error3</title>
<path class="path1" d="M28.881 27.243l-7.672-7.478 0.604-0.569c1.579-1.864 2.486-4.267 2.486-6.855 0-5.78-4.652-10.465-10.687-10.465-6.034 0-10.845 4.685-10.845 10.465s4.811 10.635 10.845 10.635c1.498 0 2.912-0.298 4.192-0.836l1.114-0.088 7.466 7.72c0.468 0.473 1.23 0.473 1.696 0l0.802-0.813c0.468-0.476 0.468-1.243 0-1.715zM13.581 21.151c-5.020 0-9.023-3.914-9.023-8.743s4.003-8.744 9.023-8.744c5.021 0 8.92 3.914 8.92 8.744s-3.899 8.743-8.92 8.743zM14.159 16.436c-0.090-0.093-0.201-0.165-0.332-0.216-0.132-0.052-0.282-0.077-0.452-0.077s-0.321 0.026-0.452 0.077c-0.131 0.052-0.243 0.123-0.333 0.216s-0.158 0.201-0.205 0.325c-0.045 0.123-0.068 0.257-0.068 0.402 0 0.283 0.091 0.52 0.274 0.711 0.182 0.19 0.445 0.285 0.785 0.285s0.603-0.095 0.788-0.285c0.186-0.191 0.278-0.428 0.278-0.711 0-0.145-0.024-0.279-0.073-0.402-0.049-0.124-0.118-0.233-0.209-0.325zM15.988 7.445c-0.283-0.258-0.628-0.453-1.036-0.588s-0.87-0.201-1.392-0.201c-0.474 0-0.914 0.063-1.318 0.189s-0.757 0.314-1.059 0.564c-0.301 0.249-0.54 0.558-0.711 0.927-0.173 0.369-0.261 0.795-0.267 1.279h1.878c0-0.248 0.043-0.459 0.127-0.634 0.086-0.175 0.198-0.319 0.336-0.433 0.139-0.113 0.296-0.197 0.472-0.248 0.175-0.051 0.355-0.077 0.541-0.077 0.464 0 0.815 0.128 1.055 0.383s0.36 0.625 0.36 1.109c0 0.221-0.033 0.423-0.1 0.603s-0.159 0.35-0.275 0.509c-0.116 0.16-0.25 0.316-0.402 0.468s-0.316 0.313-0.491 0.483c-0.232 0.227-0.428 0.44-0.587 0.642-0.16 0.201-0.291 0.413-0.39 0.637-0.101 0.224-0.173 0.472-0.216 0.742s-0.066 0.589-0.066 0.955h1.755c0.005-0.386 0.056-0.733 0.15-1.040s0.284-0.589 0.568-0.847c0.248-0.231 0.488-0.467 0.72-0.703s0.438-0.484 0.618-0.742c0.181-0.258 0.325-0.534 0.433-0.827 0.108-0.294 0.163-0.611 0.163-0.952 0-0.469-0.074-0.889-0.221-1.26-0.148-0.369-0.363-0.684-0.646-0.941z"></path>
</symbol>
<symbol id="icon-error4" viewBox="0 0 32 32">
<title>error4</title>
<path class="path1" d="M22.952 4.747h-2.691c-0.764 0-1.386 0.621-1.386 1.386 0 0.763 0.623 1.385 1.386 1.385h2.691c0.764 0 1.386-0.622 1.386-1.385 0-0.765-0.621-1.386-1.386-1.386zM20.262 11.923c-0.764 0-1.386 0.621-1.386 1.386s0.623 1.386 1.386 1.386h2.691c0.764 0 1.386-0.621 1.386-1.386s-0.622-1.386-1.386-1.386h-2.691zM25.195 17.082c-3.731 0-6.768 3.037-6.768 6.768s3.037 6.768 6.768 6.768c3.732 0 6.768-3.036 6.768-6.767s-3.036-6.769-6.768-6.769zM25.601 24.811c0 0.12-0.166 0.253-0.41 0.253-0.239 0-0.407-0.133-0.407-0.253v-3.806c0-0.12 0.168-0.253 0.407-0.253 0.243 0 0.41 0.133 0.41 0.253v3.806zM24.693 26.828c0.138-0.104 0.307-0.155 0.516-0.155 0.205 0 0.369 0.049 0.501 0.154 0.116 0.090 0.168 0.186 0.168 0.309 0 0.14-0.052 0.238-0.168 0.319-0.294 0.203-0.733 0.194-1.020 0.002-0.116-0.082-0.168-0.179-0.168-0.321 0-0.083 0.019-0.191 0.17-0.307zM16.713 23.625c0-0.095 0.006-0.19 0.013-0.284l0.024-0.427h-7.214v-4.855h9.347l0.077-0.083c0.674-0.716 1.461-1.3 2.34-1.739l1.005-0.5h-12.769v-4.856h15.62v4.495l0.249 0.013c0.596 0.031 1.182 0.124 1.741 0.277l0.333 0.091v-12.317c0-1.135-0.924-2.058-2.059-2.058h-16.148c-1.135 0-2.058 0.923-2.058 2.058v8.707h-1.283c-0.119-0.924-0.853-1.66-1.778-1.778v-6.745h-2.321v6.746c-1.012 0.129-1.795 0.996-1.795 2.041v1.795c0 1.045 0.783 1.911 1.795 2.041v6.746h2.321v-6.746c0.924-0.119 1.659-0.853 1.778-1.778h1.283v8.708c0 1.135 0.923 2.059 2.058 2.059h7.603l-0.048-0.307c-0.077-0.477-0.113-0.903-0.113-1.304zM9.535 8.56v-4.856h15.62v4.856h-15.62z"></path>
</symbol>
<symbol id="icon-error5" viewBox="0 0 32 32">
<title>error5</title>
<path class="path1" d="M12.902 18.743l3.116 3.385-6.691 7.265c-1.201 1.305-2.5 1.263-3.75 0-1.251-1.261-1.297-2.569 0-3.783l7.325-6.867zM6.82 11.739h1.251l2.5-2.524-0.001-1.261c1.037-1.965 3.469-4.346 5.228-5.121l-0.226-1.185c-2.498-0.077-5.306 1.841-7.502 3.784h-1.251l-2.5 2.522-0.001 1.261h-1.248l-2.502 3.786c-0.331 0.5-0.381 0.874 0 1.261l1.251 1.261c0.385 0.387 0.755 0.335 1.252 0l3.748-2.523v-1.261zM31.435 8.031l-2.259 2.283c-0.338 0.34-0.523 0.407-0.918 0.299l-2.694-0.73c-0.152-0.038-0.304-0.096-0.414-0.212-0.112-0.113-0.175-0.282-0.216-0.438l-0.716-2.698c-0.107-0.397-0.039-0.584 0.298-0.923l2.264-2.283c-1.124-0.509-2.414-0.266-3.316 0.644l-1.103 1.116c-0.764 0.769-1.1 1.471-0.912 2.34l0.387 1.779c0.143 0.671-0.285 1.433-0.781 1.899l-3.359 3.148 2.994 2.805 3.017-3.276c0.46-0.5 1.219-0.943 1.88-0.79l1.791 0.416c0.858 0.2 1.556-0.15 2.32-0.92l1.103-1.114c0.903-0.911 1.144-2.213 0.64-3.345h-0.004zM9.691 8.325l-2.501 2.523 17.803 19.18c0.275 0.298 0.925 0.288 1.212 0l2.486-2.51c0.288-0.292 0.296-0.956-0.004-1.238l-18.996-17.955z"></path>
</symbol>
<symbol id="icon-error6" viewBox="0 0 32 32">
<title>error6</title>
<path class="path1" d="M15.97 0.060c-8.787 0-15.91 7.123-15.91 15.91s7.123 15.91 15.91 15.91 15.91-7.124 15.91-15.91c-0.001-8.787-7.124-15.91-15.91-15.91zM14.454 8.799c0-0.642 0.678-1.163 1.515-1.163s1.515 0.52 1.515 1.163v10.592c0 0.643-0.678 1.163-1.515 1.163s-1.515-0.52-1.515-1.163v-10.592zM17.046 25.493c-0.302 0.209-0.652 0.313-1.046 0.313-0.41 0-0.767-0.102-1.073-0.31-0.305-0.206-0.456-0.493-0.456-0.865 0-0.33 0.147-0.605 0.442-0.831 0.296-0.225 0.659-0.336 1.088-0.336 0.422 0 0.778 0.111 1.067 0.336 0.288 0.226 0.431 0.502 0.431 0.831 0 0.366-0.151 0.653-0.453 0.863z"></path>
</symbol>
<symbol id="icon-female" viewBox="0 0 32 32">
<title>female</title>
<path class="path1" d="M25.621 11.692c0-5.313-4.307-9.62-9.622-9.62s-9.62 4.307-9.62 9.62c0 4.867 3.617 8.88 8.307 9.521v1.641h-1.619c-0.838 0-1.516 0.675-1.516 1.508s0.679 1.508 1.516 1.508h1.619v2.408c0 0.911 0.702 1.65 1.567 1.65s1.569-0.739 1.569-1.65v-2.408h1.933c0.838 0 1.515-0.675 1.515-1.508s-0.678-1.508-1.515-1.508h-1.933v-1.719c4.442-0.852 7.799-4.753 7.799-9.443zM16 18.576c-3.802 0-6.884-3.082-6.884-6.884s3.082-6.884 6.884-6.884c3.802 0 6.885 3.082 6.885 6.884s-3.084 6.884-6.885 6.884z"></path>
</symbol>
<symbol id="icon-image" viewBox="0 0 32 32">
<title>image</title>
<path class="path1" d="M26.434 30.019h-20.867c-1.921 0-3.478-1.556-3.478-3.478v-20.866c0-1.921 1.557-3.478 3.478-3.478h20.867c1.921 0 3.477 1.558 3.477 3.478v20.867c0 1.921-1.556 3.477-3.476 3.477zM24.943 26.541c0.823 0 1.491-0.68 1.491-1.521v-6.086l-4.471-4.564-4.971 6.493 5.491 5.679h2.461zM5.567 25.020c0 0.841 0.667 1.521 1.491 1.521h10.534l-7.495-7.649-4.529 5.412v0.715zM10.783 14.369c1.921 0 3.478-1.558 3.478-3.478 0-1.921-1.557-3.478-3.478-3.478s-3.478 1.557-3.478 3.478c0 1.92 1.557 3.478 3.478 3.478z"></path>
</symbol>
<symbol id="icon-ituneyoutube" viewBox="0 0 32 32">
<title>ituneyoutube</title>
<path class="path1" d="M17.751 25.761c-0.221-0.225-0.319-0.413-0.285-0.707 0 0 0-5.376 0-5.962-6.461 0-12.304 4.723-13.464 10.938-0.781-1.823-1.22-3.83-1.22-5.944 0-8.241 6.582-14.922 14.7-14.922v-5.861c-0.034-0.294 0.046-0.598 0.269-0.822 0.389-0.389 1.016-0.389 1.405 0l9.779 10.884c0.206 0.207 0.295 0.484 0.281 0.758 0.013 0.272-0.075 0.548-0.281 0.758l-9.725 10.82c-0.363 0.315-1.030 0.495-1.458 0.060z"></path>
</symbol>
<symbol id="icon-logom" viewBox="0 0 32 32">
<title>logom</title>
<path class="path1" d="M0.038 23.631h6.088v-12.003h4.104c0.121 0.733 0.246 1.597 0.376 2.594l0.451 3.102 0.729-5.695h4.056v-3.26h-15.804v15.263zM12.059 23.633h1.081l-0.004-8.043zM8.899 23.633h1.139l-1.135-7.853zM19.32 19.219c0.568-0.364 1.167-0.812 1.167-1.671 0-1.15-0.856-1.889-2.067-1.889-1.329 0-2.197 0.895-2.197 2.082 0 0.861 0.472 1.453 1.136 1.865-0.846 0.485-1.414 1.102-1.414 2.011 0 1.32 1.093 1.96 2.346 1.96 1.683 0 2.465-0.956 2.465-2.093-0.001-1.163-0.633-1.805-1.436-2.264zM18.399 16.216c0.428 0 0.889 0.471 0.889 1.308 0 0.581-0.182 1.089-0.514 1.319-0.879-0.422-1.242-0.932-1.242-1.5 0-0.655 0.375-1.127 0.867-1.126zM18.463 23.020c-0.696 0-1.134-0.691-1.134-1.537 0-0.581 0.16-1.103 0.545-1.537 0.892 0.47 1.48 0.981 1.48 1.937-0.001 0.726-0.419 1.137-0.891 1.137zM23.916 15.659c-1.735 0-2.475 2.082-2.475 3.959 0 1.949 0.74 3.96 2.475 3.96 1.736 0 2.475-2.010 2.475-3.96 0-1.877-0.739-3.959-2.475-3.959zM23.916 23.020c-0.815 0-0.91-2.325-0.91-3.402s0.096-3.4 0.91-3.4 0.911 2.325 0.911 3.4c0 1.077-0.097 3.402-0.911 3.402zM29.487 15.659c-1.736 0-2.475 2.082-2.475 3.959 0 1.949 0.739 3.96 2.475 3.96 1.735 0 2.475-2.010 2.475-3.96 0-1.877-0.74-3.959-2.475-3.959zM29.487 23.020c-0.813 0-0.91-2.325-0.91-3.402s0.095-3.4 0.91-3.4c0.813 0 0.911 2.325 0.911 3.4 0 1.077-0.097 3.402-0.911 3.402z"></path>
</symbol>
<symbol id="icon-magnifier" viewBox="0 0 32 32">
<title>magnifier</title>
<path class="path1" d="M15.65 11.486v-2.090c0-0.962-0.78-1.741-1.741-1.741s-1.741 0.779-1.741 1.741v2.090h-2.090c-0.962 0-1.741 0.78-1.741 1.741s0.78 1.741 1.741 1.741h2.090v2.090c0 0.962 0.78 1.741 1.741 1.741s1.741-0.78 1.741-1.741v-2.090h2.090c0.963 0 1.741-0.78 1.741-1.741s-0.779-1.741-1.741-1.741h-2.090zM28.699 26.824l-7.002-7.105c1.635-1.87 2.63-4.303 2.63-6.97 0-5.893-4.827-10.671-10.78-10.671s-10.78 4.778-10.78 10.671c0 5.892 4.827 10.671 10.78 10.671 1.933 0 3.743-0.51 5.311-1.393l7.256 7.365c0.713 0.707 1.871 0.707 2.584 0 0.712-0.707 0.712-1.862 0-2.569zM13.546 19.839c-3.955 0-7.162-3.173-7.162-7.089 0-3.917 3.208-7.091 7.162-7.091 3.956 0 7.163 3.174 7.163 7.091-0.001 3.916-3.207 7.089-7.163 7.089z"></path>
</symbol>
<symbol id="icon-male" viewBox="0 0 32 32">
<title>male</title>
<path class="path1" d="M20.23 4.641c-3.095 0.72 0.748 2.878 1.174 3.392 0.282 0.339-1.753 1.747-3.173 2.669-1.438-0.856-3.112-1.357-4.908-1.357-5.314 0-9.62 4.307-9.62 9.621s4.307 9.62 9.62 9.62 9.621-4.305 9.621-9.619c0-2.432-0.909-4.646-2.396-6.34 1.030-0.862 2.278-1.877 2.636-2.049 0.64-0.308 0.259-0.595 1.637 0.95 2.614 2.929 2.93-0.915 3.467-6.578 0.267-2.826-4.963-1.027-8.057-0.308zM13.323 25.85c-3.802 0-6.884-3.082-6.884-6.884s3.082-6.884 6.884-6.884 6.884 3.082 6.884 6.884c0 3.801-3.082 6.884-6.884 6.884z"></path>
</symbol>
<symbol id="icon-marketer" viewBox="0 0 32 32">
<title>marketer</title>
<path class="path1" d="M31.814 11.951c-0.275-0.822-0.982-1.421-1.833-1.552l-8.291-1.272-3.608-7.718c-0.377-0.81-1.19-1.329-2.083-1.329-0.892 0-1.704 0.519-2.083 1.329l-3.604 7.718-8.294 1.272c-0.852 0.131-1.559 0.73-1.833 1.552s-0.067 1.728 0.534 2.347l6.076 6.259-1.41 8.68c-0.141 0.872 0.225 1.75 0.946 2.261 0.396 0.28 0.86 0.421 1.325 0.421 0.383 0 0.767-0.093 1.114-0.287l7.229-3.886 7.23 3.884c0.348 0.195 0.733 0.287 1.113 0.287 0.465 0 0.929-0.143 1.325-0.421 0.719-0.511 1.084-1.389 0.942-2.261l-1.409-8.679 6.078-6.259c0.602-0.618 0.809-1.524 0.534-2.347zM22.955 19.84l1.606 10.026-8.563-4.567-8.562 4.567 1.606-10.026-6.976-7.239 9.678-1.412 4.256-9.057 4.256 9.057 9.677 1.412-6.979 7.238z"></path>
</symbol>
<symbol id="icon-menuaccount" viewBox="0 0 32 32">
<title>menuaccount</title>
<path class="path1" d="M20.33 1.061c-4.791 0-8.678 3.766-8.678 8.412 0 0.734 0.129 1.432 0.311 2.111l-0.047-0.051c0.075 0.287 0.169 0.564 0.273 0.838 0.010 0.026 0.015 0.053 0.025 0.079 0.16 0.406 0.361 0.792 0.58 1.165 0.053 0.092 0.109 0.183 0.168 0.272 0.234 0.365 0.486 0.721 0.774 1.046-0.023 0-0.047 0-0.071 0-0.071 0-0.139 0.023-0.207 0.036-0.045 0.010-0.091 0.008-0.134 0.023-0.122 0.043-0.237 0.109-0.337 0.203l-9.711 9.459c-0.378 0.369-0.378 0.957 0 1.321l0.019 0.015 0.009 0.010 4.728 4.665c0.376 0.364 0.986 0.364 1.364 0 0.374-0.365 0.374-0.955 0-1.32l-4.083-4.025 2.486-2.424 4.089 4.037c0.376 0.362 0.987 0.362 1.364 0 0.378-0.365 0.378-0.956 0-1.32l-4.094-4.037 5.194-5.061c0.203-0.197 0.287-0.455 0.272-0.714 0.38 0.323 0.787 0.613 1.221 0.869 0.424 0.252 0.872 0.464 1.343 0.643 0.008 0.005 0.015 0.010 0.022 0.013l-0.003-0.004c0.968 0.362 2.019 0.565 3.121 0.565 4.79 0 8.676-3.768 8.676-8.415-0.001-4.646-3.887-8.412-8.677-8.412zM22.85 11.814c-0.635 0.637-1.466 0.955-2.295 0.955-0.834 0-1.665-0.317-2.298-0.955-1.27-1.272-1.27-3.334 0-4.607 0.632-0.635 1.464-0.955 2.298-0.955 0.829 0 1.66 0.32 2.295 0.955 1.268 1.274 1.268 3.336 0 4.607z"></path>
</symbol>
<symbol id="icon-menucalls" viewBox="0 0 32 32">
<title>menucalls</title>
<path class="path1" d="M27.6 20.663c-1.629-1.316-2.938-1.924-4.11-1.924-1.512 0-3.025 1.531-3.375 1.881-0.067 0.072-0.175 0.113-0.333 0.113-0.635 0-2.065-0.744-4.9-3.587-3.813-3.809-3.709-4.924-3.466-5.245 0.244-0.321 3.080-3.604-0.043-7.485-1.185-1.477-2.383-2.196-3.661-2.196-1.715 0-2.778 0.988-4.438 2.85-2.624 2.94-0.421 9.938 6.659 17.027 5.658 5.671 11.104 7.683 14.051 7.683 1.272 0 1.806-0.294 2.961-1.016 1.159-0.723 2.921-2.792 2.847-4.58-0.055-1.227-0.77-2.381-2.193-3.521z"></path>
</symbol>
<symbol id="icon-menucompany" viewBox="0 0 32 32">
<title>menucompany</title>
<path class="path1" d="M28.637 10.598l-9.457-1.395v-4.694c0.485-0.285 0.778-0.846 0.693-1.443-0.112-0.783-0.828-1.326-1.603-1.213l-14.606 2.152c-0.772 0.115-1.307 0.841-1.196 1.625 0.083 0.574 0.493 1.013 1.007 1.164v23.366h5.34v-3.505c0-0.881 0.703-1.591 1.57-1.591h1.727c0.868 0 1.571 0.71 1.571 1.591v3.505h7.465v-4.214c0-0.657 0.526-1.192 1.175-1.192h1.292c0.648 0 1.173 0.535 1.173 1.192v4.214h3.992v-17.477c0.385-0.115 0.691-0.444 0.754-0.873 0.083-0.584-0.318-1.128-0.898-1.213zM11.249 23.471c-1.345 0-2.433-1.107-2.433-2.468 0-1.364 1.089-2.468 2.433-2.468s2.435 1.105 2.435 2.468c-0.001 1.362-1.090 2.468-2.435 2.468zM11.249 17.1c-1.345 0-2.433-1.105-2.433-2.468s1.089-2.468 2.433-2.468c1.345 0 2.435 1.105 2.435 2.468s-1.090 2.468-2.435 2.468zM11.249 10.727c-1.345 0-2.433-1.103-2.433-2.467s1.089-2.47 2.433-2.47c1.345 0 2.435 1.107 2.435 2.47s-1.090 2.467-2.435 2.467zM22.967 22.78c-1.005 0-1.82-0.825-1.82-1.845 0-1.021 0.813-1.848 1.82-1.848s1.821 0.826 1.821 1.848c-0.001 1.020-0.815 1.845-1.821 1.845zM22.967 17.219c-1.005 0-1.82-0.828-1.82-1.848s0.813-1.846 1.82-1.846 1.821 0.827 1.821 1.846c-0.001 1.020-0.815 1.848-1.821 1.848z"></path>
</symbol>
<symbol id="icon-menuenduser" viewBox="0 0 32 32">
<title>menuenduser</title>
<path class="path1" d="M29.609 25.97c-1.244-3.165-3.343-3.907-5.034-4.199-1.413-0.244-2.794-0.753-3.418-1.082 0-1.48-0.020-1.935-0.026-2.257 1.591-1.873 2.6-4.428 2.6-6.724 0-5.214-2.579-9.441-7.725-9.441-5.138 0-7.722 4.227-7.722 9.441 0 2.291 0.996 4.826 2.568 6.694 0.003 0.819 0.003 2.095-0.013 2.289-0.627 0.329-2.001 0.838-3.412 1.081-1.693 0.293-3.793 1.032-5.035 4.198-0.211 0.538-0.136 1.121 0.205 1.601 1.276 1.787 7.992 2.163 13.402 2.163 5.411 0 12.13-0.376 13.402-2.163 0.344-0.479 0.417-1.062 0.208-1.6z"></path>
</symbol>
<symbol id="icon-menuim" viewBox="0 0 32 32">
<title>menuim</title>
<path class="path1" d="M16 3.601c-7.841 0-14.199 4.758-14.199 10.627 0 3.658 2.169 6.839 5.923 8.755l-0.006 0.066c0 1.587-0.893 3.331-1.414 4.232h0.001l-0.067 0.317c0 0.444 0.36 0.803 0.804 0.803l0.213-0.015 0.015 0.003c2.772-0.453 5.821-2.897 6.428-3.635 0.625 0.093 1.045 0.106 1.567 0.106 0.218 0 0.456-0.003 0.735-0.003 7.841 0 14.198-4.76 14.198-10.628 0.001-5.869-6.357-10.628-14.198-10.628zM9.025 16.604c-1.117 0-2.023-0.873-2.023-1.949s0.906-1.951 2.023-1.951c1.117 0 2.023 0.874 2.023 1.951s-0.906 1.949-2.023 1.949zM16.105 16.604c-1.117 0-2.022-0.873-2.022-1.949s0.906-1.951 2.022-1.951c1.118 0 2.026 0.874 2.026 1.951s-0.908 1.949-2.026 1.949zM23.187 16.604c-1.117 0-2.025-0.873-2.025-1.949s0.908-1.951 2.025-1.951 2.021 0.874 2.021 1.951-0.904 1.949-2.021 1.949z"></path>
</symbol>
<symbol id="icon-menuoverview" viewBox="0 0 32 32">
<title>menuoverview</title>
<path class="path1" d="M14.788 20.624c2.047 0 4.093-0.695 5.77-2.084 0.241-0.198 0.471-0.409 0.696-0.636 3.567-3.62 3.567-9.493 0-13.117-1.786-1.813-4.126-2.719-6.466-2.719s-4.68 0.907-6.464 2.719c-3.571 3.622-3.571 9.496 0 13.117 1.784 1.814 4.124 2.72 6.464 2.72zM24.493 21.195c5.373-5.454 5.373-14.326 0-19.779-0.092-0.090-0.193-0.157-0.305-0.204-0.044-0.019-0.094-0.019-0.147-0.030-0.063-0.015-0.122-0.040-0.189-0.040h-0.035c-0.065 0.001-0.127 0.027-0.188 0.040-0.049 0.012-0.099 0.012-0.147 0.030-0.11 0.046-0.212 0.113-0.301 0.204-0.36 0.367-0.36 0.957 0 1.324 4.653 4.721 4.6 12.514 0.038 17.141-0.287 0.29-0.584 0.563-0.893 0.814-0.151 0.122-0.311 0.23-0.467 0.345-0.165 0.12-0.325 0.252-0.492 0.36-0.151 0.1-0.311 0.184-0.467 0.279-0.184 0.108-0.36 0.227-0.548 0.323-0.146 0.077-0.297 0.14-0.444 0.209-0.205 0.094-0.408 0.2-0.614 0.283-0.145 0.059-0.291 0.1-0.438 0.15-0.22 0.080-0.438 0.167-0.66 0.231-0.154 0.045-0.314 0.076-0.468 0.118-0.22 0.055-0.436 0.117-0.654 0.16-0.168 0.030-0.333 0.047-0.502 0.073-0.214 0.030-0.427 0.070-0.641 0.092-0.171 0.014-0.343 0.014-0.515 0.025-0.212 0.013-0.425 0.033-0.638 0.033-0.196 0.001-0.389-0.015-0.584-0.026-0.189-0.011-0.378-0.011-0.568-0.028-0.185-0.016-0.37-0.052-0.556-0.077-0.195-0.027-0.392-0.047-0.586-0.086-0.179-0.033-0.354-0.085-0.531-0.125-0.199-0.048-0.4-0.088-0.596-0.146-0.169-0.051-0.334-0.118-0.502-0.174-0.2-0.067-0.401-0.129-0.598-0.208-0.159-0.065-0.314-0.147-0.472-0.218-0.198-0.091-0.398-0.173-0.592-0.277-0.162-0.086-0.317-0.19-0.477-0.282-0.18-0.107-0.365-0.202-0.541-0.322-0.202-0.133-0.395-0.287-0.589-0.436-0.125-0.093-0.255-0.177-0.378-0.28-0.312-0.255-0.614-0.534-0.905-0.829-0.179-0.181-0.415-0.273-0.652-0.273-0.235 0-0.472 0.092-0.652 0.273-0.090 0.093-0.157 0.198-0.202 0.307-0.012 0.029-0.011 0.060-0.018 0.093-0.024 0.081-0.051 0.163-0.052 0.248v0.037c0.001 0.087 0.028 0.168 0.052 0.249 0.010 0.030 0.006 0.062 0.018 0.091 0.045 0.115 0.112 0.218 0.202 0.307 2.467 2.5 5.645 3.842 8.879 4.045v3.757h-1.83c-0.504 0-0.914 0.417-0.914 0.928 0 0.12 0.026 0.232 0.067 0.337 0.013 0.033 0.033 0.061 0.050 0.093 0.036 0.067 0.074 0.131 0.123 0.188 0.027 0.030 0.056 0.054 0.087 0.081 0.054 0.045 0.112 0.086 0.175 0.12 0.036 0.017 0.070 0.037 0.108 0.049 0.027 0.012 0.051 0.027 0.080 0.036h0.094c0.043 0.010 0.081 0.028 0.128 0.028h5.491c0.044 0 0.086-0.019 0.129-0.028h0.093c0.028-0.008 0.051-0.024 0.079-0.036 0.039-0.013 0.074-0.031 0.111-0.049 0.063-0.034 0.12-0.072 0.173-0.119 0.032-0.027 0.063-0.052 0.091-0.083 0.049-0.057 0.089-0.12 0.121-0.186 0.015-0.033 0.040-0.061 0.051-0.093 0.040-0.104 0.067-0.216 0.067-0.333 0-0.513-0.41-0.929-0.916-0.929h-1.829v-3.764c3.206-0.225 6.344-1.564 8.785-4.041zM31.955 13.21h0.030v0.1h-0.030v-0.1z"></path>
</symbol>
<symbol id="icon-menusetting" viewBox="0 0 32 32">
<title>menusetting</title>
<path class="path1" d="M29.327 19.37l-2.211-1.288c0.122-0.678 0.205-1.368 0.205-2.080 0-0.714-0.084-1.406-0.205-2.081l2.211-1.288c0.902-0.527 1.213-1.693 0.692-2.603l-1.889-3.301c-0.080-0.138-0.177-0.258-0.282-0.368-0.030-0.030-0.062-0.057-0.093-0.086-0.086-0.077-0.176-0.146-0.273-0.207-0.033-0.020-0.065-0.042-0.097-0.059-0.261-0.141-0.55-0.217-0.847-0.225-0.016-0.001-0.032-0.006-0.046-0.006-0.025 0-0.047 0.008-0.070 0.008-0.112 0.005-0.222 0.019-0.332 0.045-0.040 0.008-0.079 0.015-0.119 0.027-0.145 0.042-0.287 0.096-0.423 0.175l-2.233 1.302c-1.044-0.898-2.23-1.629-3.551-2.1v-1.618c0-1.051-0.842-1.905-1.887-1.905h-3.779c-1.043 0-1.887 0.853-1.887 1.905v1.618c-1.32 0.471-2.507 1.203-3.551 2.101l-2.234-1.302c-0.136-0.079-0.278-0.133-0.422-0.175-0.041-0.011-0.081-0.019-0.122-0.028-0.109-0.024-0.218-0.038-0.329-0.044-0.023 0-0.047-0.008-0.071-0.008-0.015 0-0.031 0.005-0.047 0.006-0.295 0.008-0.583 0.084-0.844 0.225-0.035 0.018-0.067 0.041-0.101 0.062-0.095 0.058-0.184 0.127-0.269 0.203-0.032 0.029-0.063 0.058-0.094 0.089-0.105 0.109-0.203 0.228-0.282 0.367l-1.889 3.301c-0.522 0.91-0.212 2.076 0.692 2.603l2.212 1.288c-0.124 0.675-0.209 1.368-0.209 2.081 0 0.712 0.084 1.403 0.209 2.080l-2.212 1.288c-0.904 0.525-1.214 1.693-0.692 2.603l1.889 3.299c0.079 0.138 0.177 0.256 0.282 0.366 0.031 0.033 0.064 0.060 0.097 0.091 0.083 0.074 0.17 0.141 0.263 0.2 0.037 0.023 0.070 0.047 0.108 0.067 0.129 0.069 0.263 0.128 0.403 0.165 0.010 0.002 0.019 0.002 0.028 0.005 0.132 0.034 0.268 0.049 0.405 0.052 0.017 0.001 0.036 0.009 0.053 0.009 0.027 0 0.054-0.010 0.081-0.012 0.106-0.005 0.209-0.019 0.314-0.041 0.043-0.010 0.086-0.015 0.13-0.030 0.142-0.040 0.284-0.093 0.419-0.173l2.234-1.3c1.044 0.895 2.23 1.629 3.551 2.099v1.617c0 1.053 0.845 1.905 1.887 1.905h3.779c1.045 0 1.887-0.851 1.887-1.905v-1.617c1.321-0.47 2.507-1.204 3.551-2.099l2.233 1.3c0.135 0.079 0.277 0.132 0.419 0.173 0.044 0.013 0.086 0.020 0.13 0.030 0.104 0.022 0.209 0.038 0.314 0.041 0.026 0.001 0.054 0.012 0.080 0.012 0.017 0 0.037-0.008 0.054-0.009 0.139-0.004 0.274-0.019 0.408-0.052 0.008-0.003 0.017-0.003 0.025-0.005 0.141-0.037 0.275-0.095 0.404-0.165 0.037-0.019 0.069-0.042 0.104-0.066 0.095-0.059 0.184-0.125 0.268-0.203 0.031-0.028 0.063-0.056 0.094-0.087 0.104-0.11 0.201-0.229 0.281-0.367l1.887-3.299c0.524-0.912 0.213-2.078-0.689-2.604zM15.987 20.765c-2.607 0-4.72-2.135-4.72-4.762 0-2.633 2.115-4.765 4.72-4.765 2.609 0 4.724 2.132 4.724 4.765 0 2.627-2.115 4.762-4.724 4.762z"></path>
</symbol>
<symbol id="icon-change-password" viewBox="0 0 32 32">
<title>change-password</title>
<path class="path1" d="M25.916 12.006h-0.964v-2.98c0-0.307-0.016-0.613-0.046-0.913-0.017-0.172-0.051-0.337-0.077-0.504-0.021-0.127-0.033-0.257-0.059-0.383-0.031-0.149-0.076-0.293-0.114-0.44-0.037-0.138-0.065-0.281-0.106-0.415-0.040-0.122-0.090-0.24-0.133-0.36-0.057-0.155-0.107-0.312-0.17-0.461-0.055-0.13-0.122-0.253-0.183-0.381-0.065-0.134-0.122-0.268-0.193-0.399-0.098-0.182-0.211-0.355-0.323-0.529-0.043-0.068-0.081-0.141-0.125-0.207-0.123-0.182-0.26-0.358-0.397-0.531-0.040-0.052-0.076-0.107-0.119-0.158-0.154-0.187-0.319-0.363-0.489-0.536-0.031-0.033-0.058-0.067-0.088-0.097-0.179-0.179-0.366-0.344-0.558-0.506-0.026-0.022-0.051-0.048-0.078-0.071-1.546-1.274-3.531-2.042-5.695-2.046v-0.002c-0.004 0-0.007 0.001-0.010 0.001-0.004 0-0.009-0.001-0.013-0.001v0.003c-4.947 0.011-8.953 4.008-8.953 8.937v2.98h-0.994c-1.647 0-2.983 1.334-2.983 2.98v13.907c0 1.645 1.336 2.979 2.983 2.979h19.886c1.646 0 2.982-1.334 2.982-2.979v-13.907c0-1.645-1.336-2.98-2.982-2.98zM15.972 25.912c-2.196 0-3.976-1.778-3.976-3.973s1.78-3.973 3.976-3.973c2.197 0 3.977 1.779 3.977 3.973s-1.78 3.973-3.977 3.973zM22.957 12.006h-13.939v-2.98c0-3.835 3.119-6.945 6.97-6.95 2.888 0.003 5.363 1.755 6.42 4.246 0.056 0.13 0.080 0.273 0.125 0.405 0.106 0.294 0.218 0.587 0.281 0.899 0.093 0.453 0.142 0.92 0.142 1.4v2.98z"></path>
</symbol>
<symbol id="icon-menustore" viewBox="0 0 32 32">
<title>menustore</title>
<path class="path1" d="M13.028 24.733c-1.529 0-2.773 1.241-2.773 2.771 0 1.529 1.245 2.771 2.773 2.771s2.772-1.242 2.772-2.771c0-1.53-1.243-2.771-2.772-2.771zM30.304 7.593c-0.179-0.225-0.45-0.356-0.734-0.356h-21.916l-1.062-4.779c-0.097-0.428-0.476-0.733-0.913-0.733h-4.596c-0.517 0-0.933 0.419-0.933 0.936 0 0.515 0.417 0.934 0.933 0.934h3.844l3.514 14.508c0.687 3.087 2.058 4.406 4.588 4.406h10.107c2.763 0 3.739-1.528 4.573-4.344 0.831-2.808 2.693-9.443 2.771-9.779 0.067-0.278 0.001-0.57-0.176-0.794zM22.219 24.733c-1.529 0-2.774 1.241-2.774 2.771 0 1.529 1.245 2.771 2.774 2.771s2.773-1.242 2.773-2.771c0-1.53-1.245-2.771-2.773-2.771z"></path>
</symbol>
<symbol id="icon-menutopup" viewBox="0 0 32 32">
<title>menutopup</title>
<path class="path1" d="M16.003 2.145c-7.643 0-13.84 6.204-13.84 13.853 0 0.457 0.024 0.909 0.069 1.356 0.015 0.148 0.042 0.291 0.061 0.438 0.038 0.296 0.078 0.592 0.134 0.881 0.033 0.171 0.078 0.336 0.118 0.504 0.060 0.261 0.121 0.52 0.196 0.771 0.053 0.175 0.113 0.347 0.172 0.518 0.082 0.24 0.166 0.477 0.259 0.71 0.070 0.173 0.145 0.339 0.22 0.508 0.101 0.226 0.208 0.447 0.321 0.668 0.083 0.163 0.172 0.325 0.262 0.483 0.121 0.214 0.25 0.425 0.383 0.633 0.097 0.152 0.197 0.303 0.298 0.451 0.145 0.207 0.297 0.405 0.452 0.602 0.107 0.138 0.212 0.276 0.324 0.41 0.17 0.201 0.349 0.394 0.531 0.584 0.111 0.117 0.217 0.239 0.33 0.35 0.216 0.211 0.44 0.411 0.669 0.609 0.092 0.080 0.179 0.165 0.275 0.243 0.33 0.27 0.669 0.528 1.023 0.768 0.031 0.020 0.066 0.039 0.097 0.060 0.323 0.214 0.653 0.417 0.994 0.604 0.12 0.067 0.246 0.122 0.369 0.185 0.26 0.131 0.519 0.262 0.787 0.38 0.148 0.065 0.301 0.118 0.452 0.179 0.251 0.096 0.503 0.195 0.76 0.278 0.166 0.054 0.333 0.1 0.5 0.147 0.253 0.070 0.507 0.139 0.767 0.197 0.174 0.040 0.352 0.072 0.531 0.106 0.136 0.024 0.268 0.059 0.406 0.079h0.12c0.642 0.091 1.293 0.155 1.961 0.155 0.666 0 1.318-0.065 1.959-0.155h0.12c0.152-0.022 0.3-0.058 0.45-0.086 0.142-0.027 0.28-0.051 0.421-0.081 0.315-0.068 0.626-0.152 0.931-0.24 0.095-0.029 0.197-0.051 0.291-0.083 0.399-0.123 0.789-0.269 1.174-0.429 0.079-0.035 0.155-0.074 0.235-0.109 0.298-0.133 0.594-0.273 0.881-0.426 0.121-0.067 0.241-0.134 0.36-0.201 0.243-0.139 0.483-0.283 0.715-0.436 0.12-0.077 0.239-0.157 0.355-0.239 0.237-0.165 0.467-0.339 0.694-0.518 0.094-0.077 0.196-0.149 0.291-0.229 0.309-0.261 0.611-0.531 0.899-0.817 2.506-2.508 4.061-5.975 4.061-9.807 0.001-7.649-6.194-13.853-13.835-13.853zM20.11 19.756c-0.23 0.474-0.559 0.886-0.97 1.235-0.404 0.339-0.879 0.616-1.412 0.817-0.281 0.105-0.576 0.181-0.877 0.23v1.643c0 0.53-0.428 0.956-0.959 0.956-0.526 0-0.954-0.426-0.954-0.956v-1.686c-0.225-0.052-0.451-0.099-0.66-0.176-0.534-0.197-1.012-0.472-1.418-0.819-0.41-0.357-0.735-0.767-0.966-1.234-0.234-0.467-0.354-0.976-0.354-1.517 0-0.23 0.086-0.438 0.25-0.6 0.161-0.161 0.377-0.243 0.595-0.243 0.216 0 0.435 0.083 0.598 0.246 0.163 0.161 0.248 0.369 0.248 0.597 0 0.296 0.067 0.561 0.203 0.82 0.139 0.26 0.329 0.492 0.569 0.683 0.246 0.197 0.541 0.355 0.883 0.471 0.338 0.12 0.718 0.177 1.1 0.177s0.764-0.058 1.112-0.177c0.348-0.12 0.654-0.278 0.909-0.477 0.252-0.189 0.447-0.42 0.584-0.678 0.134-0.252 0.188-0.513 0.168-0.799-0.020-0.264-0.104-0.517-0.249-0.749-0.149-0.241-0.349-0.462-0.593-0.654-0.241-0.194-0.527-0.36-0.846-0.489-0.324-0.133-0.67-0.227-1.027-0.284-0.511-0.035-1.035-0.139-1.526-0.308-0.497-0.168-0.942-0.387-1.32-0.656-0.387-0.273-0.702-0.598-0.937-0.97-0.244-0.386-0.371-0.817-0.371-1.281 0-0.46 0.116-0.894 0.346-1.289 0.22-0.385 0.53-0.726 0.92-1.014 0.38-0.282 0.828-0.508 1.327-0.673 0.147-0.046 0.303-0.071 0.457-0.107v-1.473c0-0.531 0.428-0.957 0.957-0.957 0.527 0 0.955 0.427 0.955 0.957v1.392c0.294 0.042 0.584 0.099 0.855 0.188 0.5 0.165 0.947 0.391 1.327 0.673 0.387 0.287 0.695 0.628 0.92 1.014 0.229 0.397 0.344 0.831 0.344 1.289 0 0.243-0.091 0.46-0.257 0.626-0.164 0.168-0.392 0.253-0.623 0.253s-0.467-0.090-0.63-0.276c-0.15-0.169-0.235-0.39-0.253-0.657-0.008-0.165-0.067-0.319-0.177-0.47-0.121-0.169-0.297-0.325-0.511-0.463-0.224-0.143-0.49-0.257-0.789-0.342-0.302-0.085-0.637-0.124-0.971-0.124-0.337 0-0.678 0.042-0.984 0.124-0.303 0.085-0.566 0.198-0.782 0.339-0.209 0.136-0.376 0.297-0.499 0.48-0.113 0.172-0.168 0.343-0.168 0.528 0 0.165 0.065 0.315 0.195 0.46 0.157 0.174 0.362 0.328 0.604 0.458 0.255 0.136 0.534 0.252 0.834 0.346 0.302 0.091 0.587 0.156 0.849 0.192 0.584 0.062 1.148 0.204 1.667 0.415 0.522 0.212 0.985 0.486 1.377 0.813 0.396 0.333 0.712 0.726 0.938 1.178 0.232 0.451 0.347 0.947 0.347 1.474 0 0.536-0.118 1.050-0.353 1.526z"></path>
</symbol>
<symbol id="icon-more" viewBox="0 0 32 32">
<title>more</title>
<path class="path1" d="M15.999 6.55c1.485 0 2.687-1.185 2.687-2.643 0-1.461-1.202-2.643-2.687-2.643s-2.687 1.183-2.687 2.643c0 1.457 1.203 2.643 2.687 2.643zM15.999 25.451c-1.485 0-2.687 1.183-2.687 2.644 0 1.457 1.203 2.641 2.687 2.641 1.485 0 2.687-1.184 2.687-2.641 0-1.462-1.202-2.644-2.687-2.644zM15.999 13.357c-1.485 0-2.687 1.183-2.687 2.643 0 1.461 1.203 2.643 2.687 2.643 1.485 0 2.687-1.181 2.687-2.643 0-1.46-1.202-2.643-2.687-2.643z"></path>
</symbol>
<symbol id="icon-multiuser" viewBox="0 0 32 32">
<title>multiuser</title>
<path class="path1" d="M14.788 20.869c-1.432-2.084-2.338-4.911-2.338-7.463 0-2.87 0.576-5.468 1.72-7.367-0.562-2.657-2.033-4.542-4.425-4.542-3.12 0-4.691 3.212-4.691 7.176 0 1.74 0.605 3.667 1.56 5.087 0.003 0.623 0.003 1.594-0.006 1.74-0.382 0.25-1.216 0.636-2.073 0.822-1.028 0.221-2.305 0.784-3.059 3.191-0.128 0.408-0.082 0.851 0.125 1.216 0.774 1.357 4.855 1.645 8.141 1.645 1.658 0 3.514-0.074 5.050-0.321-0.001-0.403-0.002-0.831-0.003-1.183zM30.508 27.293c-0.944-2.88-2.54-3.558-3.824-3.824-1.073-0.22-2.121-0.684-2.594-0.985 0-1.347-0.016-1.761-0.020-2.055 1.209-1.706 1.974-4.031 1.974-6.122 0-4.748-1.958-8.596-5.864-8.596-3.902 0-5.864 3.849-5.864 8.596 0 2.084 0.755 4.394 1.949 6.096 0.003 0.744 0.003 1.907-0.010 2.084-0.477 0.299-1.52 0.762-2.591 0.982-1.284 0.266-2.881 0.943-3.824 3.824-0.161 0.49-0.102 1.021 0.157 1.457 0.968 1.628 6.068 1.97 10.175 1.97 4.109 0 9.21-0.342 10.176-1.97 0.262-0.436 0.317-0.965 0.158-1.457z"></path>
</symbol>
<symbol id="icon-next" viewBox="0 0 32 32">
<title>next</title>
<path class="path1" d="M24.736 17.575l-14.722 13.74c-0.751 0.703-1.969 0.703-2.719 0-0.751-0.7-0.751-1.836 0-2.539l13.692-12.776-13.692-12.778c-0.751-0.701-0.751-1.838 0-2.539 0.75-0.698 1.968-0.698 2.719 0l14.722 13.74c0.462 0.431 0.624 1.058 0.624 1.578s-0.162 1.146-0.624 1.574z"></path>
</symbol>
<symbol id="icon-offnet" viewBox="0 0 32 32">
<title>offnet</title>
<path class="path1" d="M7.653 10.543c-3.073 0-5.564 2.492-5.564 5.564 0 3.074 2.492 5.565 5.564 5.565s5.565-2.492 5.565-5.565c0-3.072-2.492-5.564-5.565-5.564zM24.347 10.543c-3.073 0-5.564 2.492-5.564 5.564 0 3.074 2.492 5.565 5.564 5.565s5.564-2.492 5.564-5.565c0-3.072-2.491-5.564-5.564-5.564zM24.347 18.89c-1.536 0-2.783-1.246-2.783-2.783s1.246-2.782 2.783-2.782 2.782 1.246 2.782 2.782c0 1.536-1.246 2.783-2.782 2.783z"></path>
</symbol>
<symbol id="icon-onnet" viewBox="0 0 32 32">
<title>onnet</title>
<path class="path1" d="M7.653 10.543c-3.073 0-5.564 2.492-5.564 5.564 0 3.074 2.492 5.565 5.564 5.565s5.565-2.492 5.565-5.565c0-3.072-2.492-5.564-5.565-5.564zM24.347 10.543c-3.073 0-5.564 2.492-5.564 5.564 0 3.074 2.492 5.565 5.564 5.565s5.564-2.492 5.564-5.565c0-3.072-2.491-5.564-5.564-5.564z"></path>
</symbol>
<symbol id="icon-open" viewBox="0 0 32 32">
<title>open</title>
<path class="path1" d="M28.015 11.975h-8.033v-8.033c0-2.153-1.801-3.9-4.024-3.9s-4.025 1.747-4.025 3.9v8.034h-8.034c-2.153-0.001-3.9 1.802-3.9 4.024s1.747 4.024 3.9 4.024h8.034v8.034c0 2.152 1.802 3.9 4.025 3.9s4.024-1.748 4.024-3.9v-8.034h8.033c2.153 0 3.901-1.802 3.901-4.024s-1.748-4.024-3.901-4.024z"></path>
</symbol>
<symbol id="icon-previous" viewBox="0 0 32 32">
<title>previous</title>
<path class="path1" d="M7.356 14.426l14.723-13.74c0.751-0.703 1.969-0.703 2.719 0 0.751 0.7 0.751 1.836 0 2.539l-13.692 12.776 13.693 12.778c0.751 0.701 0.751 1.838 0 2.54-0.75 0.698-1.968 0.698-2.719 0l-14.723-13.74c-0.462-0.431-0.624-1.058-0.624-1.578s0.162-1.146 0.624-1.574z"></path>
</symbol>
<symbol id="icon-question" viewBox="0 0 32 32">
<title>question</title>
<path class="path1" d="M15.98 0.013c-8.794 0-15.925 7.148-15.925 15.967 0 8.817 7.13 15.966 15.925 15.966s15.925-7.149 15.925-15.966c0-8.819-7.13-15.967-15.925-15.967zM17.126 24.861c-0.37 0.301-0.799 0.452-1.284 0.452-0.504 0-0.943-0.149-1.318-0.445-0.376-0.298-0.563-0.713-0.563-1.247 0-0.473 0.182-0.872 0.545-1.196 0.363-0.323 0.808-0.486 1.336-0.486 0.518 0 0.956 0.163 1.311 0.486 0.355 0.325 0.532 0.723 0.532 1.196 0 0.525-0.186 0.94-0.558 1.24zM21.747 12.861c-0.284 0.482-0.624 0.897-1.015 1.248-0.39 0.35-1.094 0.938-2.109 1.766-0.28 0.233-0.504 0.438-0.673 0.616-0.17 0.176-0.294 0.337-0.377 0.485-0.084 0.147-0.147 0.293-0.193 0.44s-0.114 0.406-0.204 0.774c-0.156 0.783-0.647 1.172-1.471 1.172-0.429 0-0.79-0.127-1.082-0.385-0.293-0.254-0.44-0.634-0.44-1.139 0-0.63 0.107-1.178 0.322-1.641 0.214-0.462 0.498-0.867 0.854-1.217 0.354-0.351 0.831-0.765 1.434-1.246 0.527-0.422 0.908-0.74 1.144-0.954 0.234-0.213 0.432-0.453 0.595-0.716 0.16-0.264 0.241-0.55 0.241-0.86 0-0.601-0.246-1.108-0.736-1.523s-1.124-0.621-1.899-0.621c-0.908 0-1.575 0.21-2.003 0.627-0.43 0.417-0.792 1.032-1.088 1.846-0.281 0.849-0.813 1.274-1.597 1.274-0.462 0-0.851-0.148-1.169-0.445-0.318-0.296-0.476-0.618-0.476-0.964 0-0.715 0.252-1.438 0.755-2.171s1.238-1.341 2.201-1.823c0.966-0.481 2.091-0.721 3.376-0.721 1.195 0 2.252 0.201 3.165 0.604 0.917 0.401 1.624 0.948 2.122 1.641 0.499 0.692 0.749 1.444 0.749 2.255 0.001 0.641-0.141 1.201-0.426 1.681z"></path>
</symbol>
<symbol id="icon-refresh" viewBox="0 0 32 32">
<title>refresh</title>
<path class="path1" d="M29.987 3.296l-2.702 2.702c2.35 2.657 3.779 6.144 3.779 9.97 0 8.333-6.755 15.088-15.089 15.088s-15.088-6.756-15.088-15.088c0-7.693 5.761-14.028 13.202-14.958v3.812c-5.35 0.899-9.43 5.54-9.43 11.146 0 6.251 5.067 11.315 11.316 11.315s11.316-5.064 11.316-11.315c0-2.785-1.016-5.322-2.685-7.29l-2.621 2.62c-0.402 0.402-0.765 0.897-1.287 0.897-0.52 0-0.943-0.422-0.943-0.943v-9.431c0-0.943 0.829-0.942 0.943-0.942h9.43c0.52 0 0.943 0.422 0.943 0.942 0.001 0.522-0.576 0.969-1.084 1.476z"></path>
</symbol>
<symbol id="icon-semail" viewBox="0 0 32 32">
<title>semail</title>
<path class="path1" d="M2.102 27.196l10.803-11.059 3.096 2.567 3.020-2.582 10.603 11.075c-0.359-0.001-27.126-0.001-27.521-0.001zM1.062 24.975c0 0.229 0.041 0.442 0.101 0.65l10.307-10.643-10.408-8.508v18.5zM30.005 4.778l-14.005 11.222-14.005-11.222h28.010zM30.939 6.517l-10.374 8.429 10.273 10.678c0.060-0.207 0.101-0.421 0.101-0.65v-18.458z"></path>
</symbol>
<symbol id="icon-smobile" viewBox="0 0 32 32">
<title>smobile</title>
<path class="path1" d="M22.495 0.053h-12.986c-1.914 0-3.466 1.783-3.466 3.983v23.901c0 2.201 1.552 3.983 3.466 3.983h12.987c1.914 0 3.462-1.782 3.462-3.983v-23.901c0-2.2-1.548-3.983-3.463-3.983zM15.999 28.933c-0.716 0-1.299-0.669-1.299-1.494s0.584-1.494 1.299-1.494c0.72 0 1.299 0.669 1.299 1.494s-0.58 1.494-1.299 1.494zM21.974 23.954h-11.948v-17.926h11.948v17.926z"></path>
</symbol>
<symbol id="icon-sperson" viewBox="0 0 32 32">
<title>sperson</title>
<path class="path1" d="M31.789 27.555c-1.443-3.673-3.879-4.532-5.843-4.87-1.638-0.284-3.24-0.876-3.963-1.257 0-1.72-0.024-2.244-0.032-2.62 1.848-2.173 3.020-5.138 3.020-7.802 0-6.045-2.991-10.951-8.963-10.951-5.961 0-8.959 4.906-8.959 10.951 0 2.656 1.156 5.598 2.978 7.768 0.004 0.948 0.004 2.428-0.013 2.653-0.728 0.381-2.323 0.973-3.959 1.257-1.962 0.338-4.401 1.197-5.843 4.867-0.244 0.627-0.156 1.303 0.239 1.859 1.478 2.073 9.272 2.509 15.549 2.509 6.278 0 14.074-0.436 15.548-2.509 0.397-0.556 0.483-1.233 0.241-1.855z"></path>
</symbol>
<symbol id="icon-search" viewBox="0 0 32 32">
<title>search</title>
<path class="path1" d="M29.082 27.356l-7.062-7.192c1.448-1.851 2.319-4.177 2.319-6.71 0-6.022-4.875-10.904-10.892-10.904-6.015 0-10.89 4.881-10.89 10.904 0 6.021 4.875 10.902 10.89 10.902 2.592 0 4.968-0.909 6.838-2.422l7.046 7.18c0.483 0.483 1.267 0.483 1.75 0 0.483-0.484 0.483-1.276 0-1.759zM13.446 21.786c-4.596 0-8.323-3.73-8.323-8.332 0-4.601 3.727-8.332 8.323-8.332 4.598 0 8.323 3.731 8.323 8.332s-3.725 8.332-8.323 8.332z"></path>
</symbol>
<symbol id="icon-sticker" viewBox="0 0 32 32">
<title>sticker</title>
<path class="path1" d="M16.001 2.207c-7.685 0-13.914 6.223-13.914 13.902 0 7.677 6.229 13.903 13.914 13.903s13.912-6.225 13.912-13.903c0-7.679-6.228-13.902-13.912-13.902zM22.092 9.622c1.264 0 2.288 1.053 2.288 2.355 0 1.102-0.736 2.019-1.726 2.278h-1.124c-0.991-0.259-1.727-1.175-1.727-2.278-0.001-1.302 1.024-2.355 2.289-2.355zM10.549 9.622c1.263 0 2.287 1.053 2.287 2.355 0 1.102-0.736 2.019-1.726 2.278h-1.123c-0.99-0.259-1.726-1.175-1.726-2.278 0.001-1.302 1.025-2.355 2.288-2.355zM16.503 25.379c-3.956 0-7.213-2.832-7.692-6.489h2.351c0.458 2.423 2.672 4.262 5.34 4.262s4.881-1.839 5.339-4.262h2.352c-0.477 3.657-3.735 6.489-7.69 6.489z"></path>
</symbol>
<symbol id="icon-technical" viewBox="0 0 32 32">
<title>technical</title>
<path class="path1" d="M21.311 23.665c0.351 0.351 0.917 0.351 1.267 0l3.044-2.89c0.048-0.033 0.102-0.054 0.147-0.096 0.031-0.035 0.047-0.075 0.072-0.113l0.024-0.020c0.047-0.049 0.065-0.081 0.061-0.109 0.168-0.336 0.122-0.753-0.157-1.032l-3.163-3.185c-0.35-0.351-0.918-0.351-1.266 0-0.35 0.351-0.35 0.922 0 1.275l2.419 2.435-2.448 2.463c-0.348 0.349-0.348 0.92 0.001 1.272zM6.212 20.49c-0.002 0.029 0.013 0.060 0.063 0.11l0.023 0.020c0.026 0.038 0.041 0.077 0.073 0.113 0.043 0.042 0.099 0.065 0.147 0.099l3.043 2.888c0.35 0.351 0.917 0.351 1.267 0 0.181-0.182 0.264-0.424 0.256-0.664 0.007-0.239-0.075-0.481-0.256-0.664l-2.421-2.433 2.394-2.412c0.181-0.182 0.264-0.425 0.256-0.664 0.007-0.24-0.075-0.481-0.256-0.664-0.351-0.351-0.916-0.351-1.267 0l-3.162 3.185c-0.153 0.152-0.23 0.348-0.246 0.547-0.026 0.181 0.004 0.37 0.088 0.539zM13.348 23.71c0.372 0.374 0.98 0.374 1.354 0l4.055-6.046c0.194-0.195 0.282-0.451 0.275-0.705 0.008-0.253-0.081-0.51-0.275-0.703-0.372-0.374-0.979-0.374-1.352 0l-4.056 6.047c-0.193 0.194-0.282 0.45-0.274 0.704-0.008 0.254 0.081 0.51 0.274 0.703zM28.975 0.063h-25.898c-1.649 0-2.988 1.338-2.988 2.987v25.896c0 1.65 1.339 2.99 2.988 2.99h25.898c1.65 0 2.988-1.34 2.988-2.99v-25.896c0-1.651-1.337-2.987-2.988-2.987zM29.972 27.953c0 1.1-0.893 1.992-1.992 1.992h-23.905c-1.101 0-1.991-0.893-1.991-1.992v-17.929h27.889v17.929zM29.972 8.031h-27.889v-3.983c0-1.101 0.89-1.992 1.991-1.992h23.905c1.101 0 1.992 0.891 1.992 1.992v3.983zM5.097 4.074c-0.282 0-0.536 0.118-0.717 0.307-0.188 0.18-0.307 0.435-0.307 0.716 0 0.551 0.445 0.996 0.997 0.996 0.282 0 0.536-0.118 0.717-0.307 0.188-0.181 0.307-0.435 0.307-0.717-0.001-0.549-0.446-0.995-0.997-0.995zM9.082 4.074c-0.282 0-0.536 0.118-0.717 0.307-0.188 0.181-0.307 0.435-0.307 0.717 0 0.551 0.446 0.996 0.997 0.996 0.282 0 0.534-0.118 0.716-0.306 0.188-0.181 0.307-0.435 0.307-0.717-0.001-0.551-0.446-0.997-0.996-0.997zM13.066 4.074c-0.552 0-0.997 0.446-0.997 0.997s0.445 0.996 0.997 0.996c0.55 0 0.995-0.445 0.995-0.996s-0.445-0.997-0.995-0.997z"></path>
</symbol>
<symbol id="icon-text" viewBox="0 0 32 32">
<title>text</title>
<path class="path1" d="M26.434 2.196h-20.867c-1.921 0-3.478 1.558-3.478 3.478v20.867c0 1.921 1.557 3.478 3.478 3.478h20.867c1.921 0 3.477-1.556 3.477-3.478v-20.867c0-1.921-1.556-3.478-3.476-3.478zM20.552 12.568h-2.84v10.181c0 0.943-0.765 1.706-1.707 1.706s-1.708-0.764-1.708-1.706v-10.181h-2.849c-0.943 0-1.708-0.765-1.708-1.707 0-0.945 0.765-1.708 1.708-1.708h9.105c0.943 0 1.707 0.764 1.707 1.708-0.001 0.943-0.765 1.707-1.708 1.707z"></path>
</symbol>
<symbol id="icon-tickwithcircle" viewBox="0 0 32 32">
<title>tickwithcircle</title>
<path class="path1" d="M15.97 0.060c-8.787 0-15.91 7.123-15.91 15.91s7.123 15.91 15.91 15.91c8.787 0 15.91-7.124 15.91-15.91s-7.123-15.91-15.91-15.91zM24.406 11.78l-9.263 10.047c-0.061 0.136-0.138 0.266-0.242 0.379-0.266 0.289-0.619 0.421-0.968 0.406-0.349 0.015-0.702-0.116-0.968-0.406-0.105-0.115-0.183-0.245-0.244-0.382l-5.187-5.627c-0.506-0.547-0.506-1.434 0-1.982 0.504-0.549 1.324-0.549 1.828 0l4.571 4.957 8.644-9.376c0.506-0.547 1.323-0.547 1.829 0 0.504 0.547 0.504 1.434 0 1.983z"></path>
</symbol>
<symbol id="icon-tick" viewBox="0 0 32 32">
<title>tick</title>
<path class="path1" d="M31.302 4.74c-0.918-0.993-2.401-0.993-3.32 0l-15.683 17.012-8.294-8.994c-0.915-0.996-2.401-0.996-3.316 0-0.918 0.993-0.918 2.604 0 3.596l9.411 10.209c0.111 0.249 0.253 0.486 0.443 0.693 0.484 0.525 1.124 0.765 1.757 0.736 0.632 0.029 1.274-0.211 1.756-0.736 0.189-0.205 0.329-0.44 0.44-0.687l16.806-18.231c0.915-0.996 0.915-2.607 0-3.599z"></path>
</symbol>
<symbol id="icon-upload" viewBox="0 0 32 32">
<title>upload</title>
<path class="path1" d="M28.493 20.744l-1.032 5.435h-22.965l-1.032-5.435h-2.567v8.64h30.162v-8.64h-2.566zM5.913 14.57h7.508v8.116h5.197v-8.116h7.437l-9.997-12.020-10.145 12.020z"></path>
</symbol>
<symbol id="icon-video" viewBox="0 0 32 32">
<title>video</title>
<path class="path1" d="M6.436 5.673h-1.672c-1.517 0-2.671 1.173-2.671 2.785l-0.004 15.3c0 1.507 1.158 2.785 2.671 2.785h13.793c1.487 0 2.671-1.284 2.671-2.785l0.005-2.657 7.144 4.346c0.45 0.468 1.537-0.017 1.537-0.749v-17.206c0-0.652-1.050-1.318-1.674-0.667l-7.007 4.323v-2.69c0-1.528-1.187-2.785-2.673-2.785h-1.688zM15.131 5.677h-6.956z"></path>
</symbol>
<symbol id="icon-logout" viewBox="0 0 32 32">
<title>logout</title>
<path class="path1" d="M3.596 16.973h18.33c0.55 0 0.995-0.445 0.995-0.993s-0.444-0.993-0.995-0.993h-18.33l3.116-3.112c0.421-0.421 0.421-1.105-0.001-1.525-0.421-0.421-1.104-0.42-1.525 0l-4.808 4.804c-0.227 0.227-0.321 0.529-0.304 0.826-0.017 0.296 0.077 0.599 0.304 0.826l4.808 4.805c0.422 0.421 1.105 0.421 1.525 0 0.422-0.421 0.422-1.103 0.001-1.524l-3.116-3.114zM28.889 1.469h-14.919c-1.647 0-2.984 1.335-2.984 2.98v6.911h0.007c0 0.548 0.445 0.993 0.995 0.993 0.539 0 0.988-0.001 0.988-0.001h12.762v7.255h-12.762c0 0-0.449-0.001-0.988-0.001-0.549 0-0.995 0.445-0.995 0.994h-0.007v6.911c0 1.646 1.336 2.979 2.984 2.979h14.919c1.647 0 2.984-1.333 2.984-2.979v-23.062c0-1.645-1.336-2.98-2.984-2.98z"></path>
</symbol>
<symbol id="icon-no-data" viewBox="0 0 32 32">
<title>no-data</title>
<path class="path1" d="M31.893 25.952c0 1.047-0.89 1.896-1.987 1.896h-27.813c-1.097 0-1.987-0.849-1.987-1.896v-7.583c0-0.347 0-1.548 0-1.895l3.973-10.426c0.287-0.982 0.89-1.896 1.987-1.896h19.866c1.098 0 1.725 0.957 1.987 1.896l3.973 10.426c0 0.347 0 1.548 0 1.895v7.583zM11.034 18.369c0 1.017 0 1.896 0 1.896h9.933c0 0 0-0.894 0-1.896 0-0.888 0.838-1.895 1.987-1.895 2.633 0 6.467 0 6.467 0l-3.847-10.014h-19.146l-3.837 10.014c0 0 3.853 0 6.457 0 1.036 0 1.987 1.028 1.987 1.895zM16.993 25.952v0 0 0z"></path>
</symbol>
<symbol id="icon-long" viewBox="0 0 32 32">
<title>long</title>
<path class="path1" d="M27.078 4.56h-22.212c-1.533 0-2.776 0.982-2.776 2.192v1.096c0 1.21 1.243 2.191 2.776 2.191h22.212c1.533 0 2.776-0.982 2.776-2.191v-1.096c-0.001-1.21-1.244-2.192-2.776-2.192zM20.136 22.68h-15.27c-1.533 0-2.776 0.982-2.776 2.193v1.095c-0.001 1.211 1.243 2.192 2.776 2.192h15.27c1.533 0 2.776-0.981 2.776-2.193v-1.095c0-1.21-1.244-2.192-2.776-2.192zM27.078 13.62h-22.212c-1.533 0-2.776 0.981-2.776 2.193v1.095c0 1.211 1.243 2.193 2.776 2.193h22.212c1.533 0 2.776-0.982 2.776-2.193v-1.095c-0.001-1.212-1.244-2.193-2.776-2.193z"></path>
</symbol>
<symbol id="icon-menu-sms" viewBox="0 0 32 32">
<title>menu-sms</title>
<path class="path1" d="M16 3.601c-7.841 0-14.199 4.758-14.199 10.627 0 3.658 2.169 6.839 5.923 8.755l-0.006 0.066c0 1.587-0.893 3.331-1.414 4.232h0.001l-0.067 0.317c0 0.444 0.36 0.803 0.804 0.803l0.213-0.015 0.015 0.003c2.772-0.453 5.821-2.896 6.428-3.635 0.625 0.093 1.045 0.106 1.567 0.106 0.218 0 0.456-0.003 0.735-0.003 7.841 0 14.198-4.76 14.198-10.628 0-5.869-6.358-10.628-14.199-10.628zM10.62 17.142c-0.13 0.396-0.323 0.749-0.575 1.048-0.258 0.307-0.578 0.55-0.952 0.724-0.375 0.173-0.801 0.261-1.265 0.261-0.253 0-0.515-0.031-0.776-0.093-0.258-0.062-0.509-0.15-0.747-0.261-0.241-0.113-0.468-0.246-0.675-0.398-0.216-0.157-0.408-0.337-0.572-0.534l-0.204-0.246 0.628-1.199c0.069-0.138 0.174-0.256 0.309-0.345 0.312-0.207 0.716-0.188 1.050 0.062 0.095 0.072 0.204 0.152 0.324 0.238 0.099 0.071 0.214 0.137 0.344 0.197 0.207 0.095 0.589 0.093 0.721-0.035 0.061-0.059 0.097-0.204 0.097-0.398 0-0.090-0.015-0.161-0.043-0.2-0.048-0.067-0.113-0.122-0.198-0.17-0.119-0.067-0.259-0.126-0.415-0.179-0.192-0.064-0.39-0.135-0.592-0.213-0.219-0.084-0.436-0.19-0.644-0.314-0.233-0.138-0.444-0.321-0.625-0.545s-0.328-0.5-0.435-0.823c-0.107-0.32-0.159-0.695-0.159-1.146 0-0.369 0.063-0.735 0.186-1.086 0.125-0.358 0.312-0.681 0.556-0.961 0.248-0.285 0.554-0.516 0.911-0.684 0.554-0.262 1.279-0.32 1.948-0.188 0.236 0.047 0.464 0.118 0.676 0.211 0.211 0.092 0.411 0.203 0.594 0.331 0.187 0.13 0.358 0.28 0.507 0.447l0.208 0.231-0.529 1.194c-0.089 0.173-0.174 0.287-0.273 0.374-0.263 0.23-0.668 0.262-1.025 0.026l-0.284-0.186c-0.083-0.054-0.18-0.102-0.287-0.147-0.079-0.032-0.175-0.049-0.289-0.049-0.093 0-0.261 0.012-0.332 0.086-0.023 0.024-0.092 0.096-0.092 0.304 0 0.058 0.010 0.099 0.029 0.123 0.051 0.063 0.122 0.12 0.213 0.171 0.122 0.068 0.267 0.133 0.428 0.191 0.196 0.071 0.396 0.149 0.599 0.236 0.214 0.091 0.427 0.2 0.632 0.322 0.232 0.139 0.441 0.318 0.621 0.533 0.182 0.217 0.328 0.479 0.436 0.781s0.163 0.659 0.163 1.064c0.001 0.44-0.063 0.86-0.191 1.245zM20.441 19.084h-2.39v-3.688l-0.903 2.115c-0.091 0.216-0.224 0.387-0.394 0.509-0.184 0.129-0.389 0.195-0.614 0.195h-0.221c-0.226 0-0.432-0.065-0.612-0.193-0.171-0.123-0.304-0.294-0.396-0.511l-0.902-2.107v3.68h-2.39v-9.401h1.903c0.122 0 0.238 0.025 0.344 0.074 0.107 0.050 0.201 0.123 0.28 0.219 0.064 0.078 0.119 0.171 0.169 0.287l1.713 4.083 1.715-4.078c0.051-0.119 0.106-0.212 0.169-0.289 0.083-0.099 0.177-0.173 0.283-0.222 0.103-0.049 0.22-0.074 0.343-0.074h1.903v9.402zM26.758 17.142c-0.131 0.398-0.325 0.751-0.576 1.050-0.256 0.306-0.577 0.549-0.951 0.723-0.376 0.173-0.802 0.262-1.266 0.262-0.254 0-0.515-0.031-0.776-0.093-0.259-0.063-0.51-0.15-0.748-0.262-0.241-0.113-0.468-0.246-0.675-0.397-0.215-0.156-0.408-0.336-0.572-0.534l-0.203-0.246 0.628-1.199c0.069-0.137 0.173-0.256 0.309-0.346 0.308-0.205 0.714-0.187 1.049 0.063 0.095 0.071 0.203 0.151 0.324 0.239 0.097 0.070 0.213 0.136 0.344 0.196 0.207 0.095 0.588 0.094 0.723-0.035 0.060-0.058 0.095-0.203 0.095-0.397 0-0.090-0.015-0.161-0.044-0.2-0.047-0.067-0.113-0.122-0.197-0.169-0.119-0.067-0.259-0.126-0.415-0.179-0.192-0.064-0.39-0.135-0.593-0.213-0.22-0.085-0.436-0.19-0.643-0.314-0.233-0.138-0.444-0.321-0.625-0.545s-0.328-0.501-0.435-0.823c-0.107-0.319-0.159-0.694-0.159-1.146 0-0.37 0.063-0.735 0.185-1.086 0.125-0.358 0.313-0.682 0.557-0.962 0.248-0.285 0.554-0.515 0.91-0.684 0.554-0.263 1.282-0.32 1.948-0.188 0.236 0.047 0.463 0.118 0.677 0.211 0.211 0.091 0.412 0.203 0.595 0.331 0.186 0.129 0.358 0.28 0.508 0.447l0.208 0.231-0.529 1.194c-0.088 0.173-0.173 0.286-0.271 0.373-0.267 0.232-0.668 0.263-1.026 0.027l-0.284-0.186c-0.084-0.054-0.18-0.103-0.287-0.147-0.078-0.032-0.175-0.049-0.289-0.049-0.093 0-0.26 0.011-0.331 0.086-0.023 0.024-0.092 0.097-0.092 0.304 0 0.057 0.010 0.099 0.029 0.122 0.051 0.065 0.122 0.121 0.212 0.172 0.122 0.068 0.267 0.132 0.428 0.191 0.197 0.071 0.396 0.15 0.599 0.236 0.214 0.091 0.428 0.2 0.632 0.322 0.232 0.139 0.441 0.318 0.621 0.532 0.181 0.217 0.328 0.48 0.436 0.781 0.108 0.298 0.163 0.656 0.163 1.063 0 0.442-0.064 0.861-0.191 1.246z"></path>
</symbol>
<symbol id="icon-short" viewBox="0 0 32 32">
<title>short</title>
<path class="path1" d="M17.36 4.56h-12.494c-1.533 0-2.776 0.982-2.776 2.192v1.095c0 1.211 1.243 2.192 2.776 2.192h12.494c1.533 0 2.776-0.982 2.776-2.192v-1.095c0-1.21-1.243-2.192-2.776-2.192zM10.419 22.68h-5.553c-1.533 0-2.776 0.982-2.776 2.193v1.095c-0.001 1.211 1.243 2.192 2.776 2.192h5.553c1.533 0 2.776-0.981 2.776-2.193v-1.095c0-1.21-1.243-2.192-2.776-2.192zM14.583 13.62h-9.717c-1.533 0-2.776 0.981-2.776 2.193v1.095c0 1.211 1.243 2.193 2.776 2.193h9.718c1.533 0 2.777-0.982 2.777-2.193v-1.095c-0.001-1.212-1.244-2.193-2.778-2.193z"></path>
</symbol>
<symbol id="icon-others" viewBox="0 0 32 32">
<title>others</title>
<path class="path1" d="M26.433 2.196h-20.876c-1.922 0-3.48 1.558-3.48 3.48v20.876c0 1.921 1.558 3.48 3.48 3.48h20.876c1.922 0 3.48-1.558 3.48-3.48v-20.876c-0.001-1.922-1.558-3.48-3.48-3.48zM17.134 24.63c-0.357 0.288-0.767 0.432-1.233 0.432-0.483 0-0.904-0.143-1.263-0.427-0.36-0.285-0.541-0.683-0.541-1.195 0-0.454 0.173-0.836 0.522-1.146s0.774-0.467 1.281-0.467c0.499 0 0.917 0.156 1.257 0.467s0.509 0.692 0.509 1.146c0.001 0.506-0.177 0.901-0.533 1.19zM21.565 13.124c-0.273 0.462-0.598 0.86-0.973 1.196s-1.050 0.9-2.022 1.693c-0.269 0.223-0.484 0.42-0.646 0.59-0.162 0.168-0.282 0.323-0.362 0.465-0.079 0.14-0.139 0.281-0.182 0.421-0.043 0.141-0.109 0.387-0.196 0.741-0.15 0.75-0.621 1.125-1.412 1.125-0.412 0-0.757-0.122-1.037-0.368-0.281-0.244-0.421-0.609-0.421-1.091 0-0.606 0.102-1.131 0.307-1.574 0.207-0.445 0.479-0.833 0.818-1.169 0.341-0.335 0.799-0.733 1.377-1.196 0.506-0.404 0.871-0.708 1.097-0.913s0.415-0.435 0.57-0.687c0.154-0.252 0.231-0.526 0.231-0.821 0-0.578-0.236-1.064-0.706-1.461-0.47-0.396-1.078-0.595-1.821-0.595-0.87 0-1.51 0.201-1.92 0.6-0.412 0.401-0.76 0.989-1.044 1.768-0.269 0.815-0.779 1.223-1.529 1.223-0.443 0-0.818-0.143-1.123-0.428-0.305-0.284-0.455-0.593-0.455-0.924 0-0.685 0.241-1.379 0.723-2.082 0.483-0.704 1.187-1.286 2.111-1.748 0.925-0.461 2.005-0.692 3.238-0.692 1.147 0 2.158 0.193 3.036 0.579s1.556 0.911 2.035 1.574c0.479 0.664 0.716 1.385 0.716 2.163 0 0.614-0.136 1.151-0.408 1.611z"></path>
</symbol>
<symbol id="icon-clock" viewBox="0 0 32 32">
<title>clock</title>
<path class="path1" d="M15.98 29.668c7.547 0 13.665-6.12 13.665-13.668s-6.118-13.668-13.666-13.668c-7.548 0-13.667 6.12-13.667 13.668s6.118 13.668 13.667 13.668zM16.421 17.737h-7.714c-0.701 0-1.268-0.537-1.268-1.201s0.568-1.202 1.268-1.202h6.446v-8.384c0-0.664 0.567-1.202 1.268-1.202 0.7 0 1.268 0.538 1.268 1.202v9.586c0.001 0.664-0.568 1.201-1.268 1.201z"></path>
</symbol>
<symbol id="icon-timeout" viewBox="0 0 32 32">
<title>timeout</title>
<path class="path1" d="M24.44 6.734l0.906-0.868 0.46 0.439c0.457 0.438 0.933 0.040 0.933 0.040 0.445-0.424-0.017-0.917-0.017-0.917l-2.22-2.12c-0.517-0.494-0.99 0.067-0.99 0.067-0.386 0.369 0.059 0.767 0.059 0.767l0.455 0.436-1.237 1.182c-1.609-0.81-3.393-1.343-5.293-1.523l0.001-2.153h1.074c1.078 0 1.144-0.995 1.144-0.995 0-0.995-1.144-1.060-1.144-1.060h-5.208c-1.212 0-1.074 1.19-1.074 1.19 0 0.865 1.004 0.834 1.004 0.834h1.077v2.208c-7.258 0.79-12.898 6.669-12.898 13.81 0 7.679 6.52 13.907 14.562 13.907 8.045 0 14.492-6.227 14.492-13.907 0-4.682-2.399-8.819-6.086-11.338zM24.248 24.243c-0.087 0.109-2.96-2.352-2.96-2.352l-0.583 0.794c0 0 2.794 2.397 2.628 2.554-1.77 1.689-4.184 2.757-6.867 2.869-0.073 0.003-0.018-3.372-0.018-3.372l-0.922-0.006c0 0-0.045 2.677-0.040 3.373-2.204-0.109-4.227-0.865-5.859-2.075-0.337-0.248-0.653-0.518-0.955-0.805-0.115-0.108 2.538-2.583 2.538-2.583l-0.735-0.759c0 0-2.288 2.031-2.74 2.315-1.228-1.542-1.986-3.445-2.075-5.523 0-0.054 3.417 0.022 3.417 0.022l0.018-0.931c0 0-2.581 0.012-3.431 0.030 0.096-1.994 0.963-4.126 2.116-5.638 0.058-0.079 2.607 2.474 2.607 2.474l0.771-0.998c0 0-2.36-2.147-2.515-2.326 1.88-1.811 4.491-2.932 7.376-2.932 2.845 0 5.475 1.12 7.34 2.888-0.332 0.211-2.707 2.477-2.707 2.477l0.705 0.814c0 0 2.76-2.449 2.833-2.357 1.254 1.547 2.037 3.453 2.147 5.539-0.421 0.028-3.519 0.028-3.519 0.028l0.036 0.946c0 0 3.491-0.097 3.488-0.006-0.095 2.088-0.859 3.994-2.095 5.539zM16.027 9.099l-2.598 8.795c0 0-1.216 3.63 2.527 3.63 0 0 3.76-0.051 2.57-3.598l-2.499-8.827z"></path>
</symbol>
<symbol id="icon-voice" viewBox="0 0 32 32">
<title>voice</title>
<path class="path1" d="M13.971 31.43c-0.56 0-1.012-0.428-1.012-0.957 0-0.527 0.452-0.957 1.012-0.957h1.011v-1.957c-4.997-0.426-9.228-3.977-10.122-8.568h2.025c0.922 3.833 4.776 6.698 9.11 6.698 4.335 0 8.189-2.865 9.111-6.698h2.024c-0.893 4.591-5.124 8.142-10.123 8.568v1.957h1.013c0.559 0 1.012 0.429 1.012 0.957 0 0.529-0.454 0.957-1.012 0.957h-4.049zM15.995 23.775c-3.912 0-7.085-2.997-7.085-6.697v-9.568c0-3.699 3.172-6.698 7.085-6.698 3.914 0 7.086 2.999 7.086 6.698v9.568c0 3.7-3.172 6.697-7.086 6.697z"></path>
</symbol>
<symbol id="icon-all" viewBox="0 0 32 32">
<title>all</title>
<path class="path1" d="M9.548 10.479c-0.435-0.457-0.941-0.813-1.52-1.067-0.58-0.254-1.187-0.381-1.818-0.381-0.685 0-1.318 0.138-1.898 0.413s-1.083 0.654-1.512 1.133c-0.427 0.479-0.764 1.039-1.007 1.677-0.243 0.639-0.373 1.322-0.385 2.048v7.235c0 0.379 0.131 0.696 0.394 0.957 0.264 0.262 0.566 0.392 0.909 0.392s0.646-0.14 0.909-0.426c0.264-0.282 0.395-0.613 0.395-0.991v-2.484h4.406v2.55c0 0.391 0.129 0.715 0.387 0.968 0.257 0.255 0.563 0.382 0.918 0.382 0.356-0.014 0.655-0.158 0.9-0.435 0.243-0.276 0.364-0.603 0.364-0.981v-7.342c0-0.726-0.132-1.401-0.394-2.026s-0.612-1.166-1.048-1.623zM4.015 16.154v-1.961c0-0.319 0.060-0.625 0.178-0.915s0.276-0.538 0.474-0.74c0.197-0.204 0.427-0.367 0.691-0.491s0.54-0.185 0.83-0.185c0.317 0 0.61 0.066 0.88 0.196 0.269 0.131 0.507 0.305 0.712 0.523 0.202 0.218 0.362 0.476 0.473 0.773s0.168 0.614 0.168 0.947v1.853h-4.406zM19.744 19.988h-4.762v-9.498c0-0.408-0.134-0.753-0.405-1.036-0.269-0.283-0.577-0.425-0.919-0.425-0.381 0-0.705 0.142-0.967 0.425-0.264 0.283-0.396 0.628-0.396 1.036v10.96c0.026 0.422 0.164 0.773 0.414 1.055 0.25 0.285 0.567 0.426 0.948 0.426h6.086c0.357 0 0.664-0.141 0.92-0.426 0.258-0.282 0.386-0.633 0.386-1.055 0-0.407-0.127-0.753-0.386-1.035-0.256-0.284-0.564-0.427-0.92-0.427zM30.206 20.415c-0.255-0.284-0.563-0.426-0.919-0.426h-4.762v-9.498c0-0.408-0.135-0.753-0.404-1.036-0.271-0.283-0.576-0.425-0.92-0.425-0.384 0-0.705 0.142-0.969 0.425s-0.395 0.628-0.395 1.036v10.96c0.027 0.422 0.165 0.773 0.413 1.055 0.251 0.285 0.566 0.426 0.949 0.426h6.086c0.357 0 0.664-0.141 0.919-0.426 0.257-0.282 0.387-0.633 0.387-1.055 0.001-0.407-0.127-0.753-0.385-1.035z"></path>
</symbol>
</defs>
</svg>
