<?xml version="1.0" encoding="UTF-8" standalone="no"?>
<svg width="22px" height="20px" viewBox="0 0 22 20" version="1.1" xmlns="http://www.w3.org/2000/svg" xmlns:xlink="http://www.w3.org/1999/xlink" xmlns:sketch="http://www.bohemiancoding.com/sketch/ns">
    <!-- Generator: Sketch 3.3.3 (12081) - http://www.bohemiancoding.com/sketch -->
    <title>icon / user-verify-solid / normal / white copy</title>
    <desc>Created with Sketch.</desc>
    <defs></defs>
    <g id="Page-1" stroke="none" stroke-width="1" fill="none" fill-rule="evenodd" sketch:type="MSPage">
        <g id="Icons-(1x)" sketch:type="MSArtboardGroup" transform="translate(-535.000000, -434.000000)" fill="#FFFFFF">
            <g id="icon-/-user-verify-solid-/-normal-/-white-copy" sketch:type="MSLayerGroup" transform="translate(535.000000, 434.000000)">
                <path d="M14.3871011,12.6547115 C14.2345718,12.4701445 14.05702,12.2659399 13.8497581,12.0376277 C12,9.99999999 12.4434475,11.0667222 11.473623,10.6981198 C10.5319031,11.4837511 9.31929817,11.9623939 7.99578824,11.9623939 C6.67379163,11.9623939 5.46097053,11.4837511 4.52206108,10.6981198 C3.72562028,10.996677 2.99403622,11.4320819 2.35692682,12.0376277 C1.52351767,12.8282314 0.847926595,13.9176085 0.419439713,15.3736424 C0.086724622,16.519661 0.00327561271,17.8206873 0.00327561271,17.8206873 C-0.055095456,18.7665148 0.673678146,19.5404719 1.62793702,19.5404719 L13.5609292,19.5404719 C13.5611844,19.5399043 13.5614399,19.5393369 13.5616957,19.5387695 C14.1586047,19.5149543 14.7186717,19.2422234 15.1175907,18.7805671 C15.1895817,18.7126837 15.2568165,18.6400441 15.317998,18.5643779 L21.4677144,11.0954754 C21.8510177,10.633263 22.037589,10.0419857 21.9937026,9.43017043 L21.9919731,9.41265911 C21.9400877,8.80278953 21.6640141,8.25129103 21.2160702,7.86128582 C20.7737472,7.47517201 20.1971708,7.28319605 19.6210267,7.33032528 C19.0364513,7.37594119 18.503545,7.65741945 18.118296,8.124388 L14.3871011,12.6547115 L14.3871011,12.6547115 Z M7.91599806,10.4836601 C10.8224449,10.4836601 13.1795551,8.1384403 13.1795551,5.24085721 C13.1795551,2.34867885 10.8224449,0 7.91599806,0 C5.00436268,0 2.64725245,2.34867885 2.64725245,5.24085721 C2.64725245,8.1384403 5.00436268,10.4836601 7.91599806,10.4836601 Z M19.5668689,8.78245846 C19.308739,8.80191548 19.0750386,8.92816994 18.9079244,9.13095536 L16.179506,12.443912 C15.2591539,13.561441 13.4184496,15.796499 13.4184496,15.796499 L10.8127219,13.4653315 C10.4058539,13.1075385 9.79468722,13.1594239 9.44791983,13.5801279 C9.27756279,13.7842105 9.1995185,14.0432051 9.21940791,14.3093339 C9.24037825,14.5752466 9.36230893,14.8160813 9.5579601,14.9881678 L12.8918129,17.9566609 C13.0710337,18.1175057 13.2934923,18.1953338 13.5157347,18.1953338 C13.7898626,18.1953338 14.0631257,18.0749164 14.2533721,17.8431616 C14.2609387,17.8351626 14.2637492,17.8260827 14.2719644,17.8180837 C14.3219041,17.7765754 14.3681685,17.7309595 14.4094607,17.6792903 L20.3829829,10.4246312 C20.551178,10.2216296 20.631168,9.96349975 20.6119272,9.69628997 C20.5894435,9.43037732 20.4705395,9.18824548 20.2727264,9.01637511 C20.074481,8.84320761 19.8237016,8.76062335 19.5668689,8.78245846 Z" id="Fill-1" sketch:type="MSShapeGroup"></path>
            </g>
        </g>
    </g>
</svg>